<svg width="177" height="117" viewBox="0 0 177 117" fill="none" xmlns="http://www.w3.org/2000/svg">
<path d="M0 51.3516C0 46.0391 0.820312 41.2344 2.46094 36.9375C4.10156 32.6406 6.5625 28.6172 9.84375 24.8672C13.125 21.0781 17.207 17.4648 22.0898 14.0273C27.0117 10.5508 32.7539 7.01562 39.3164 3.42188C39.668 3.22656 40.2148 2.95312 40.957 2.60156C41.6992 2.25 42.5 1.89844 43.3594 1.54688C44.2188 1.19531 45.0781 0.902344 45.9375 0.667969C46.8359 0.394531 47.6367 0.257812 48.3398 0.257812C49.6289 0.257812 50.5469 0.316406 51.0938 0.433594C51.6797 0.550781 51.9727 0.882812 51.9727 1.42969C51.9727 1.82031 51.4844 2.38672 50.5078 3.12891C49.5703 3.83203 48.457 4.57422 47.168 5.35547C45.8789 6.13672 44.6094 6.89844 43.3594 7.64062C42.1094 8.38281 41.1914 8.94922 40.6055 9.33984C39.4336 10.1602 37.9102 11.2734 36.0352 12.6797C34.1602 14.0469 32.2656 15.5898 30.3516 17.3086C28.4375 19.0273 26.6992 20.8438 25.1367 22.7578C23.5742 24.6328 22.5 26.4688 21.9141 28.2656C22.4609 28.1094 23.125 27.9727 23.9062 27.8555C24.6875 27.7383 25.6055 27.6797 26.6602 27.6797C30.7227 27.6797 34.4336 28.4023 37.793 29.8477C41.1914 31.293 44.1016 33.2656 46.5234 35.7656C48.9453 38.2266 50.8203 41.1172 52.1484 44.4375C53.5156 47.7578 54.1992 51.293 54.1992 55.043C54.1992 58.8711 53.5156 62.4648 52.1484 65.8242C50.7812 69.1445 48.8672 72.0547 46.4062 74.5547C43.9453 77.0156 41.0156 78.9688 37.6172 80.4141C34.2578 81.8203 30.5859 82.5234 26.6016 82.5234C23.7109 82.5234 21.0352 82.1133 18.5742 81.293C16.1523 80.4727 13.9453 79.3398 11.9531 77.8945C10 76.4102 8.26172 74.6719 6.73828 72.6797C5.25391 70.6875 4.00391 68.5391 2.98828 66.2344C2.01172 63.9297 1.26953 61.5273 0.761719 59.0273C0.253906 56.4883 0 53.9297 0 51.3516ZM27.3047 77.7773C29.6484 77.7773 31.6016 77.1328 33.1641 75.8438C34.7266 74.5156 35.9766 72.8359 36.9141 70.8047C37.8516 68.7344 38.5156 66.4492 38.9062 63.9492C39.2969 61.4492 39.4922 59.0078 39.4922 56.625C39.4922 53.5781 39.2773 50.6289 38.8477 47.7773C38.418 44.8867 37.6562 42.3477 36.5625 40.1602C35.4688 37.9336 33.9844 36.1562 32.1094 34.8281C30.2344 33.4609 27.832 32.7773 24.9023 32.7773C22.7148 32.7773 20.918 33.3438 19.5117 34.4766C18.1055 35.5703 17.0117 37.1133 16.2305 39.1055C15.4492 41.0586 14.9023 43.3633 14.5898 46.0195C14.3164 48.6758 14.1797 51.5469 14.1797 54.6328C14.1797 56.2344 14.2578 57.9336 14.4141 59.7305C14.5703 61.4883 14.8438 63.2266 15.2344 64.9453C15.625 66.6641 16.1328 68.3047 16.7578 69.8672C17.4219 71.3906 18.2422 72.7578 19.2188 73.9688C20.1953 75.1406 21.3477 76.0781 22.6758 76.7812C24.0039 77.4453 25.5469 77.7773 27.3047 77.7773Z" fill="#C5B37B"/>
<path d="M89.1211 82.5234C84.668 82.5234 80.7422 81.5273 77.3438 79.5352C73.9453 77.5039 71.0938 74.6914 68.7891 71.0977C66.5234 67.4648 64.8047 63.1289 63.6328 58.0898C62.4609 53.0508 61.875 47.5039 61.875 41.4492C61.875 38.2461 62.1289 35.0039 62.6367 31.7227C63.1836 28.4023 63.9648 25.2188 64.9805 22.1719C65.9961 19.0859 67.2656 16.2148 68.7891 13.5586C70.3516 10.8633 72.1289 8.53906 74.1211 6.58594C76.1523 4.59375 78.418 3.03125 80.918 1.89844C83.418 0.726562 86.1523 0.140625 89.1211 0.140625C92.0898 0.140625 94.8047 0.707031 97.2656 1.83984C99.7656 2.97266 101.992 4.53516 103.945 6.52734C105.898 8.51953 107.598 10.8633 109.043 13.5586C110.527 16.2148 111.738 19.0859 112.676 22.1719C113.652 25.2188 114.375 28.4023 114.844 31.7227C115.352 35.0039 115.605 38.2656 115.605 41.5078C115.605 47.5625 115.059 53.1094 113.965 58.1484C112.871 63.1875 111.211 67.5234 108.984 71.1562C106.797 74.75 104.043 77.543 100.723 79.5352C97.4414 81.5273 93.5742 82.5234 89.1211 82.5234ZM75.7031 41.5078C75.7031 44.5547 75.7617 47.582 75.8789 50.5898C75.9961 53.5586 76.2305 56.4102 76.582 59.1445C76.9336 61.8398 77.4023 64.3398 77.9883 66.6445C78.6133 68.9492 79.4141 70.9414 80.3906 72.6211C81.4062 74.3008 82.6172 75.6289 84.0234 76.6055C85.4688 77.543 87.168 78.0117 89.1211 78.0117C91.0742 78.0117 92.7539 77.5234 94.1602 76.5469C95.5664 75.5703 96.7383 74.2422 97.6758 72.5625C98.6133 70.8438 99.3555 68.8125 99.9023 66.4688C100.449 64.125 100.859 61.6055 101.133 58.9102C101.406 56.1758 101.582 53.3242 101.66 50.3555C101.738 47.3867 101.777 44.3984 101.777 41.3906C101.777 38.9297 101.699 36.3125 101.543 33.5391C101.426 30.7266 101.191 27.9727 100.84 25.2773C100.527 22.543 100.078 19.9453 99.4922 17.4844C98.9062 14.9844 98.1445 12.7969 97.207 10.9219C96.2695 9.00781 95.1367 7.48438 93.8086 6.35156C92.4805 5.21875 90.9375 4.65234 89.1797 4.65234C87.2266 4.65234 85.5273 5.21875 84.082 6.35156C82.6367 7.48438 81.4062 9.00781 80.3906 10.9219C79.4141 12.8359 78.6133 15.043 77.9883 17.543C77.3633 20.043 76.875 22.6602 76.5234 25.3945C76.2109 28.1289 75.9961 30.8828 75.8789 33.6562C75.7617 36.4297 75.7031 39.0469 75.7031 41.5078Z" fill="#C5B37B"/>
<path d="M123.516 38.8711H144.902V16.6641H155.859V38.8711H176.953V49.8281H155.859V71.8008H144.902V49.8281H123.516V38.8711Z" fill="#C5B37B"/>
<path d="M7.77153 105.242C7.77153 105.199 7.76056 105.163 7.73861 105.135L3.24912 98.106C3.12471 97.9126 2.98933 97.7191 2.84298 97.5256C2.70394 97.325 2.5466 97.1387 2.37098 96.9668C2.20267 96.7877 2.01606 96.6336 1.81116 96.5046C1.61358 96.3685 1.39771 96.2718 1.16353 96.2145C1.12695 96.2073 1.0684 96.1965 0.987907 96.1822C0.907411 96.1607 0.823256 96.1428 0.735442 96.1285C0.647628 96.1142 0.563473 96.0998 0.482977 96.0855C0.402481 96.0712 0.343938 96.0604 0.307349 96.0532C0.234171 96.0461 0.164651 96.0031 0.0987907 95.9243C0.0329302 95.8383 0 95.7631 0 95.6986C0 95.6843 0 95.6592 0 95.6234C0.00731783 95.5875 0.0146357 95.5553 0.0219535 95.5266C0.0365891 95.4908 0.0548837 95.4621 0.0768372 95.4406C0.0987907 95.412 0.128062 95.3977 0.164651 95.3977H7.61786C7.69836 95.3977 7.74958 95.4335 7.77153 95.5051C7.79349 95.5768 7.80446 95.6413 7.80446 95.6986C7.80446 95.7702 7.79715 95.8455 7.78251 95.9243C7.77519 96.0031 7.73495 96.0425 7.66177 96.0425C7.46419 96.0568 7.27758 96.0712 7.10195 96.0855C6.92633 96.0998 6.77631 96.1356 6.65191 96.193C6.5275 96.2431 6.42871 96.3219 6.35553 96.4294C6.28236 96.5369 6.24577 96.6873 6.24577 96.8808C6.24577 97.0528 6.28967 97.2068 6.37749 97.3429L9.7254 102.609C9.80589 102.731 9.85712 102.806 9.87907 102.835C9.90834 102.864 9.95225 102.878 10.0108 102.878C10.062 102.878 10.1059 102.849 10.1425 102.792C10.1864 102.735 10.2376 102.659 10.2962 102.566L12.9416 98.1705C13.044 98.0057 13.1465 97.823 13.2489 97.6224C13.3587 97.4218 13.4136 97.2176 13.4136 97.0098C13.4136 96.8092 13.3843 96.6515 13.3258 96.5369C13.2745 96.4151 13.194 96.3219 13.0843 96.2574C12.9745 96.193 12.8391 96.1464 12.6781 96.1177C12.5245 96.0891 12.3452 96.064 12.1403 96.0425C12.0598 96.0353 12.0122 95.9923 11.9976 95.9135C11.9829 95.8347 11.9756 95.7631 11.9756 95.6986C11.9756 95.6484 11.9829 95.5875 11.9976 95.5159C12.0195 95.4371 12.0744 95.3977 12.1622 95.3977H17.6835C17.7421 95.3977 17.7823 95.4406 17.8043 95.5266C17.8262 95.6054 17.8372 95.6628 17.8372 95.6986C17.8372 95.7702 17.8116 95.8311 17.7604 95.8813C17.7165 95.9314 17.6579 95.9744 17.5847 96.0103C17.5189 96.0389 17.4457 96.064 17.3652 96.0855C17.292 96.0998 17.2225 96.1142 17.1567 96.1285C16.7908 96.2073 16.4724 96.3398 16.2017 96.5261C15.9382 96.7053 15.6784 96.931 15.4223 97.2032C15.3857 97.239 15.3309 97.2964 15.2577 97.3752C15.1918 97.454 15.1552 97.5006 15.1479 97.5149L10.8999 104.662V108.456C10.8999 108.886 11.0133 109.219 11.2402 109.455C11.467 109.692 11.8695 109.839 12.4476 109.896C12.5281 109.903 12.6306 109.907 12.755 109.907C12.8794 109.907 12.9855 109.907 13.0733 109.907C13.1099 109.907 13.1318 109.917 13.1392 109.939C13.1538 109.96 13.1611 109.978 13.1611 109.993V110.466C13.1611 110.48 13.1538 110.498 13.1392 110.519C13.1318 110.541 13.1099 110.552 13.0733 110.552H5.59814C5.56155 110.552 5.53594 110.541 5.5213 110.519C5.51398 110.498 5.51033 110.48 5.51033 110.466V109.993C5.51033 109.978 5.51398 109.96 5.5213 109.939C5.53594 109.917 5.56155 109.907 5.59814 109.907C5.67864 109.907 5.78109 109.907 5.90549 109.907C6.03721 109.907 6.14332 109.903 6.22381 109.896C6.80192 109.839 7.2044 109.692 7.43126 109.455C7.65811 109.219 7.77153 108.886 7.77153 108.456V105.242Z" fill="#C5B37B"/>
<path d="M15.7846 106.199C15.7846 105.361 15.9053 104.59 16.1468 103.888C16.3883 103.179 16.7359 102.566 17.1896 102.05C17.6433 101.534 18.1958 101.133 18.8471 100.847C19.5057 100.56 20.2521 100.417 21.0863 100.417C21.3351 100.417 21.5583 100.435 21.7559 100.47C21.9535 100.499 22.1328 100.542 22.2938 100.599C22.4621 100.65 22.6158 100.714 22.7548 100.793C22.9011 100.865 23.0475 100.943 23.1939 101.029C23.3622 101.115 23.5524 101.269 23.7647 101.491C23.9842 101.714 24.1891 101.972 24.3793 102.265C24.5696 102.559 24.7306 102.874 24.8623 103.211C24.994 103.541 25.0599 103.859 25.0599 104.168C25.0599 104.268 25.038 104.379 24.994 104.501C24.9575 104.615 24.8916 104.673 24.7965 104.673H18.3202C18.247 104.673 18.1958 104.737 18.1665 104.866C18.1446 104.995 18.1336 105.153 18.1336 105.339C18.1336 105.97 18.2251 106.532 18.408 107.026C18.5983 107.514 18.8507 107.929 19.1654 108.273C19.4801 108.61 19.8423 108.868 20.2521 109.047C20.6619 109.219 21.0936 109.305 21.5473 109.305C21.8327 109.305 22.1072 109.269 22.3706 109.197C22.634 109.119 22.8865 109.018 23.128 108.896C23.3695 108.775 23.5963 108.638 23.8086 108.488C24.0208 108.338 24.222 108.187 24.4123 108.037C24.4562 108.022 24.4855 108.015 24.5001 108.015C24.522 108.015 24.5513 108.033 24.5879 108.069C24.6538 108.126 24.7196 108.194 24.7855 108.273C24.8513 108.345 24.9026 108.406 24.9392 108.456C24.9611 108.477 24.9721 108.499 24.9721 108.52C24.9721 108.542 24.9575 108.567 24.9282 108.596C24.6867 108.875 24.3903 109.151 24.0391 109.423C23.6878 109.688 23.3109 109.928 22.9085 110.143C22.5133 110.351 22.1072 110.519 21.69 110.648C21.2729 110.777 20.8778 110.842 20.5046 110.842C19.7508 110.842 19.0812 110.709 18.4958 110.444C17.9104 110.172 17.4164 109.817 17.014 109.38C16.6115 108.943 16.3041 108.449 16.0919 107.897C15.887 107.338 15.7846 106.772 15.7846 106.199ZM22.2279 103.845C22.4182 103.845 22.5133 103.763 22.5133 103.598C22.5133 103.319 22.4657 103.057 22.3706 102.813C22.2828 102.563 22.1547 102.344 21.9864 102.158C21.8181 101.964 21.6132 101.814 21.3717 101.706C21.1376 101.599 20.8741 101.545 20.5814 101.545C20.2301 101.545 19.9228 101.62 19.6593 101.771C19.3959 101.914 19.1727 102.09 18.9898 102.298C18.8068 102.505 18.6678 102.72 18.5727 102.942C18.4848 103.164 18.4409 103.354 18.4409 103.512C18.4409 103.634 18.4592 103.72 18.4958 103.77C18.5324 103.82 18.58 103.845 18.6385 103.845H22.2279Z" fill="#C5B37B"/>
<path d="M31.4923 110.337C31.2508 110.501 30.9654 110.63 30.6361 110.723C30.3068 110.817 29.9775 110.863 29.6482 110.863C28.7554 110.863 28.0749 110.666 27.6065 110.272C27.1455 109.878 26.915 109.344 26.915 108.671C26.915 108.284 27.0028 107.951 27.1784 107.671C27.3614 107.392 27.6285 107.145 27.9797 106.93C28.331 106.715 28.7627 106.521 29.275 106.349C29.7945 106.17 30.3946 105.995 31.0752 105.823C31.4411 105.73 31.7338 105.629 31.9533 105.522C32.1802 105.414 32.3887 105.31 32.579 105.21C32.7034 105.146 32.7729 105.088 32.7875 105.038C32.8095 104.988 32.8205 104.941 32.8205 104.898V103.028C32.8205 102.792 32.7839 102.573 32.7107 102.373C32.6448 102.165 32.5424 101.986 32.4034 101.835C32.2643 101.685 32.096 101.567 31.8984 101.481C31.7008 101.395 31.4776 101.352 31.2288 101.352C31.0166 101.352 30.819 101.388 30.6361 101.459C30.4531 101.531 30.2958 101.635 30.1641 101.771C30.0324 101.907 29.9263 102.068 29.8458 102.255C29.7726 102.441 29.736 102.652 29.736 102.889C29.736 102.91 29.736 102.942 29.736 102.985C29.7433 103.028 29.7506 103.075 29.758 103.125C29.7653 103.168 29.7726 103.207 29.7799 103.243C29.7872 103.279 29.7909 103.301 29.7909 103.308C29.7836 103.322 29.7214 103.351 29.6043 103.394C29.4945 103.437 29.3555 103.487 29.1872 103.544C29.0262 103.594 28.8469 103.648 28.6493 103.705C28.4517 103.756 28.2615 103.806 28.0785 103.856C27.9029 103.906 27.7456 103.953 27.6065 103.996C27.4748 104.031 27.3833 104.053 27.3321 104.06C27.2516 104.06 27.2004 104.021 27.1784 103.942C27.1638 103.856 27.1565 103.773 27.1565 103.695C27.1565 103.279 27.2845 102.874 27.5407 102.48C27.7968 102.086 28.1371 101.739 28.5615 101.438C28.9932 101.13 29.4872 100.882 30.0433 100.696C30.5995 100.51 31.174 100.417 31.7667 100.417C32.2936 100.417 32.7656 100.485 33.1827 100.621C33.5998 100.75 33.9547 100.933 34.2474 101.169C34.5402 101.398 34.7633 101.667 34.917 101.975C35.0707 102.276 35.1475 102.598 35.1475 102.942V108.069C35.1475 108.255 35.2171 108.424 35.3561 108.574C35.5025 108.717 35.6891 108.789 35.9159 108.789C36.0476 108.789 36.1647 108.767 36.2672 108.724C36.3769 108.674 36.4721 108.621 36.5526 108.563C36.6404 108.499 36.7135 108.445 36.7721 108.402C36.8306 108.352 36.8819 108.327 36.9258 108.327C36.9843 108.327 37.0172 108.352 37.0246 108.402C37.0319 108.445 37.0355 108.484 37.0355 108.52C37.0355 108.642 37.0172 108.767 36.9807 108.896C36.9514 109.018 36.8965 109.108 36.816 109.165C36.4574 109.43 36.1391 109.67 35.861 109.885C35.5829 110.093 35.3305 110.272 35.1036 110.423C34.8768 110.573 34.6719 110.688 34.4889 110.766C34.306 110.845 34.134 110.885 33.973 110.885C33.8267 110.885 33.6949 110.845 33.5779 110.766C33.4681 110.688 33.3693 110.591 33.2815 110.476C33.201 110.362 33.1315 110.24 33.0729 110.111C33.0144 109.975 32.9632 109.849 32.9193 109.735C32.8827 109.62 32.8534 109.527 32.8314 109.455C32.8095 109.384 32.7912 109.351 32.7766 109.359L31.4923 110.337ZM29.4726 108.413C29.4726 108.606 29.5091 108.764 29.5823 108.886C29.6628 109.007 29.7653 109.101 29.8897 109.165C30.0141 109.23 30.1531 109.276 30.3068 109.305C30.4678 109.326 30.6324 109.337 30.8007 109.337C30.9544 109.337 31.1447 109.301 31.3715 109.23C31.5984 109.151 31.8179 109.05 32.0301 108.929C32.2497 108.8 32.4363 108.656 32.59 108.499C32.7436 108.334 32.8205 108.169 32.8205 108.004V106.231C32.8205 106.152 32.7912 106.113 32.7327 106.113C32.718 106.113 32.7034 106.116 32.6887 106.124L30.1421 107.284C30.0397 107.356 29.9446 107.424 29.8567 107.489C29.7762 107.546 29.7067 107.617 29.6482 107.703C29.5896 107.782 29.5457 107.879 29.5165 107.994C29.4872 108.101 29.4726 108.241 29.4726 108.413Z" fill="#C5B37B"/>
<path d="M41.7885 100.46C41.8177 100.445 41.847 100.431 41.8763 100.417C41.9129 100.402 41.9385 100.395 41.9531 100.395C42.0775 100.395 42.1397 100.481 42.1397 100.653V102.48C42.1397 102.502 42.1397 102.53 42.1397 102.566C42.147 102.595 42.169 102.609 42.2056 102.609C42.2422 102.609 42.2714 102.598 42.2934 102.577C42.3153 102.548 42.3373 102.523 42.3593 102.502C42.491 102.33 42.6373 102.14 42.7983 101.932C42.9666 101.717 43.1423 101.517 43.3252 101.33C43.5155 101.144 43.7094 100.99 43.907 100.868C44.1046 100.739 44.2985 100.675 44.4887 100.675C44.6205 100.675 44.7924 100.71 45.0047 100.782C45.2169 100.854 45.4218 100.94 45.6193 101.04C45.8242 101.133 45.9962 101.234 46.1353 101.341C46.2816 101.441 46.3548 101.524 46.3548 101.588C46.3548 101.653 46.3219 101.774 46.256 101.954C46.1901 102.126 46.106 102.301 46.0035 102.48C45.9084 102.659 45.8023 102.821 45.6852 102.964C45.5754 103.1 45.473 103.168 45.3779 103.168H45.3559C45.2242 103.125 45.0888 103.075 44.9498 103.018C44.818 102.953 44.6827 102.892 44.5436 102.835C44.4046 102.77 44.2619 102.72 44.1155 102.684C43.9765 102.641 43.8338 102.62 43.6874 102.62C43.4679 102.62 43.263 102.667 43.0727 102.76C42.8825 102.846 42.7178 102.96 42.5788 103.104C42.4471 103.24 42.341 103.394 42.2605 103.566C42.18 103.738 42.1397 103.902 42.1397 104.06V108.596C42.1397 108.803 42.1836 108.979 42.2714 109.122C42.3666 109.258 42.4837 109.373 42.6227 109.466C42.7691 109.552 42.9264 109.62 43.0947 109.67C43.2703 109.713 43.4386 109.749 43.5996 109.778C43.7606 109.806 43.907 109.831 44.0387 109.853C44.1704 109.867 44.2692 109.889 44.3351 109.917C44.4082 109.946 44.4448 110.046 44.4448 110.218C44.4448 110.426 44.4082 110.537 44.3351 110.552H38.0015C37.9283 110.537 37.8917 110.426 37.8917 110.218C37.8917 110.046 37.9283 109.946 38.0015 109.917C38.0966 109.874 38.232 109.842 38.4076 109.821C38.5833 109.792 38.7589 109.742 38.9345 109.67C39.1101 109.591 39.2638 109.473 39.3955 109.316C39.5273 109.151 39.5931 108.911 39.5931 108.596V103.426C39.5931 103.254 39.5456 103.121 39.4504 103.028C39.3553 102.928 39.2345 102.853 39.0882 102.803C38.9418 102.752 38.7845 102.713 38.6162 102.684C38.4479 102.649 38.2869 102.609 38.1332 102.566C38.0893 102.552 38.0527 102.534 38.0234 102.512C38.0015 102.484 37.9905 102.43 37.9905 102.351C37.9905 102.315 38.0015 102.28 38.0234 102.244C38.0454 102.208 38.0893 102.172 38.1552 102.136L41.7885 100.46Z" fill="#C5B37B"/>
<path d="M48.7587 101.878C48.6123 101.878 48.5209 101.832 48.4843 101.739C48.4477 101.645 48.4294 101.56 48.4294 101.481C48.4367 101.388 48.466 101.302 48.5172 101.223C48.5758 101.144 48.6453 101.072 48.7258 101.008C48.8063 100.943 48.8868 100.882 48.9673 100.825C49.0551 100.761 49.1319 100.7 49.1978 100.642C49.3002 100.542 49.4063 100.431 49.5161 100.309C49.6259 100.187 49.7247 100.058 49.8125 99.9223C49.9003 99.7862 49.9735 99.6465 50.032 99.5032C50.0905 99.3599 50.1198 99.2166 50.1198 99.0733C50.1198 99.016 50.1088 98.9551 50.0869 98.8906C50.0722 98.8261 50.0027 98.7938 49.8783 98.7938C49.6442 98.7938 49.4027 98.758 49.1539 98.6864C48.9124 98.6147 48.6892 98.5072 48.4843 98.3639C48.2794 98.2206 48.1111 98.0451 47.9794 97.8373C47.8549 97.6224 47.7927 97.3752 47.7927 97.0957C47.7927 96.8235 47.8367 96.5835 47.9245 96.3757C48.0123 96.1607 48.1367 95.9816 48.2977 95.8383C48.4587 95.695 48.6453 95.5875 48.8575 95.5159C49.077 95.4371 49.3185 95.3977 49.582 95.3977C50.0357 95.3977 50.4016 95.4836 50.6796 95.6556C50.965 95.8204 51.1846 96.0246 51.3382 96.2682C51.4919 96.5046 51.5944 96.7554 51.6456 97.0205C51.6968 97.2785 51.7224 97.5042 51.7224 97.6976C51.7224 98.0845 51.6602 98.4643 51.5358 98.8368C51.4114 99.2094 51.2468 99.5605 51.0419 99.8901C50.8443 100.22 50.6138 100.524 50.3503 100.804C50.0869 101.083 49.8161 101.323 49.538 101.524C49.4283 101.603 49.3002 101.681 49.1539 101.76C49.0148 101.839 48.8831 101.878 48.7587 101.878Z" fill="#C5B37B"/>
<path d="M54.3898 110.487C54.3239 110.487 54.2654 110.505 54.2141 110.541C54.1629 110.577 54.1117 110.616 54.0605 110.659C54.0166 110.709 53.9727 110.752 53.9287 110.788C53.8848 110.824 53.8336 110.842 53.7751 110.842H53.3799C53.3653 110.842 53.3433 110.738 53.314 110.53C53.2848 110.322 53.2518 110.075 53.2153 109.788C53.186 109.495 53.1604 109.194 53.1384 108.886C53.1165 108.57 53.1055 108.309 53.1055 108.101C53.1055 107.986 53.1457 107.915 53.2262 107.886C53.314 107.85 53.4055 107.832 53.5007 107.832C53.5519 107.832 53.6068 107.85 53.6653 107.886C53.7312 107.922 53.7897 107.969 53.8409 108.026C53.8995 108.076 53.9507 108.13 53.9946 108.187C54.0385 108.244 54.0714 108.295 54.0934 108.338C54.2178 108.603 54.3422 108.843 54.4666 109.058C54.591 109.273 54.7337 109.455 54.8947 109.606C55.0557 109.756 55.246 109.874 55.4655 109.96C55.685 110.039 55.9485 110.079 56.2558 110.079C56.49 110.079 56.6803 110.039 56.8266 109.96C56.973 109.882 57.0864 109.778 57.1669 109.649C57.2474 109.52 57.2986 109.373 57.3206 109.208C57.3498 109.043 57.3645 108.871 57.3645 108.692C57.3645 108.334 57.2547 108.033 57.0352 107.789C56.8156 107.539 56.5412 107.306 56.2119 107.091C55.8899 106.876 55.535 106.657 55.1472 106.435C54.7666 106.213 54.4117 105.955 54.0824 105.661C53.7604 105.368 53.4897 105.02 53.2701 104.619C53.0506 104.211 52.9408 103.709 52.9408 103.114C52.9408 102.77 53.0506 102.437 53.2701 102.115C53.4897 101.785 53.7751 101.495 54.1263 101.244C54.4776 100.993 54.8691 100.793 55.3008 100.642C55.7399 100.492 56.1753 100.417 56.6071 100.417C56.8339 100.417 57.0608 100.438 57.2876 100.481C57.5218 100.517 57.734 100.56 57.9243 100.61C58.1219 100.66 58.2865 100.71 58.4182 100.761C58.5573 100.811 58.6451 100.847 58.6817 100.868C58.7329 100.904 58.7731 100.961 58.8024 101.04C58.839 101.112 58.861 101.23 58.8683 101.395C58.8829 101.56 58.8902 101.782 58.8902 102.061C58.8976 102.333 58.9012 102.692 58.9012 103.136C58.9012 103.258 58.8536 103.347 58.7585 103.404C58.6707 103.455 58.5829 103.48 58.4951 103.48C58.4146 103.48 58.3341 103.465 58.2536 103.437C58.1804 103.408 58.1328 103.362 58.1109 103.297C58.0231 103.075 57.9243 102.853 57.8145 102.631C57.7047 102.401 57.5767 102.197 57.4303 102.018C57.2913 101.832 57.1266 101.685 56.9364 101.577C56.7461 101.463 56.5266 101.405 56.2778 101.405C56.1314 101.405 55.9851 101.423 55.8387 101.459C55.6923 101.495 55.5606 101.567 55.4435 101.674C55.3265 101.774 55.2313 101.914 55.1581 102.093C55.0923 102.272 55.0593 102.502 55.0593 102.781C55.0593 103.025 55.1728 103.25 55.3996 103.458C55.6338 103.666 55.9229 103.877 56.2668 104.092C56.6107 104.3 56.9839 104.526 57.3864 104.769C57.7962 105.013 58.1731 105.292 58.517 105.608C58.861 105.923 59.1464 106.288 59.3732 106.704C59.6074 107.112 59.7245 107.596 59.7245 108.155C59.7245 108.57 59.6147 108.947 59.3952 109.283C59.1756 109.613 58.8939 109.892 58.55 110.122C58.206 110.351 57.8218 110.526 57.3974 110.648C56.9803 110.777 56.5705 110.842 56.168 110.842C55.9631 110.842 55.7582 110.824 55.5533 110.788C55.3484 110.752 55.1618 110.709 54.9935 110.659C54.8252 110.616 54.6861 110.577 54.5764 110.541C54.4666 110.505 54.4044 110.487 54.3898 110.487Z" fill="#C5B37B"/>
<path d="M66.6618 110.003C66.6618 109.996 66.6654 109.982 66.6727 109.96C66.6801 109.932 66.7057 109.917 66.7496 109.917H66.9911C67.2984 109.896 67.6131 109.885 67.9351 109.885C68.2571 109.878 68.5498 109.839 68.8132 109.767C69.0767 109.688 69.2925 109.556 69.4608 109.369C69.6291 109.176 69.7133 108.879 69.7133 108.477V97.4719C69.7133 97.1925 69.6548 96.9668 69.5377 96.7948C69.4206 96.6157 69.2669 96.4724 69.0767 96.3649C68.8864 96.2574 68.6705 96.1786 68.429 96.1285C68.1875 96.0712 67.9424 96.0246 67.6936 95.9888H67.4631C67.4265 95.9888 67.4009 95.978 67.3862 95.9565C67.3789 95.935 67.3753 95.9171 67.3753 95.9028V95.4836C67.3753 95.4693 67.3789 95.4514 67.3862 95.4299C67.4009 95.4084 67.4265 95.3977 67.4631 95.3977H78.3959C78.5276 95.3977 78.6228 95.4227 78.6813 95.4729C78.7398 95.5159 78.7764 95.6162 78.7911 95.7738L78.9887 99.213C78.9887 99.2488 78.9557 99.2775 78.8899 99.299C78.8313 99.3133 78.7764 99.3205 78.7252 99.3205C78.6667 99.3205 78.6081 99.3133 78.5496 99.299C78.491 99.2846 78.4508 99.2631 78.4288 99.2345C78.3776 99.1628 78.341 99.0589 78.3191 98.9228C78.2971 98.7795 78.2715 98.6219 78.2422 98.4499C78.2203 98.278 78.1837 98.0988 78.1325 97.9126C78.0886 97.7263 78.019 97.5543 77.9239 97.3967C77.8288 97.239 77.6971 97.1029 77.5287 96.9883C77.3678 96.8665 77.1592 96.7841 76.9031 96.7411H72.9844C72.8892 96.7411 72.8417 96.7877 72.8417 96.8808V102.007C72.8417 102.079 72.8783 102.115 72.9514 102.115H76.0908C76.2737 102.115 76.453 102.093 76.6287 102.05C76.8116 102 76.9689 101.914 77.1007 101.792C77.2397 101.671 77.3495 101.502 77.43 101.287C77.5178 101.065 77.5617 100.782 77.5617 100.438C77.5617 100.381 77.5909 100.352 77.6495 100.352H78.0776C78.1361 100.352 78.1654 100.381 78.1654 100.438V105.361C78.1654 105.396 78.1544 105.421 78.1325 105.436C78.1105 105.443 78.0922 105.447 78.0776 105.447H77.6495C77.6129 105.447 77.5873 105.436 77.5726 105.414C77.5653 105.393 77.5617 105.375 77.5617 105.361C77.5617 104.959 77.5178 104.637 77.43 104.393C77.3495 104.142 77.2397 103.949 77.1007 103.813C76.9616 103.67 76.8006 103.576 76.6177 103.533C76.4421 103.483 76.2554 103.458 76.0579 103.458H72.9514C72.8783 103.458 72.8417 103.494 72.8417 103.566V108.262C72.8417 108.47 72.8746 108.638 72.9405 108.767C73.0063 108.889 73.0941 108.982 73.2039 109.047C73.321 109.111 73.4527 109.154 73.5991 109.176C73.7454 109.197 73.8991 109.208 74.0601 109.208H77.0567C77.4812 109.208 77.8361 109.115 78.1215 108.929C78.4069 108.735 78.6374 108.502 78.813 108.23C78.9887 107.958 79.1167 107.675 79.1972 107.381C79.285 107.087 79.3399 106.837 79.3619 106.629C79.3765 106.536 79.4241 106.464 79.5046 106.414C79.5851 106.356 79.6765 106.328 79.779 106.328C79.8156 106.328 79.8595 106.342 79.9107 106.371C79.9619 106.399 79.9875 106.432 79.9875 106.468L79.6253 110.401C79.6107 110.437 79.5887 110.473 79.5594 110.509C79.5375 110.537 79.5082 110.552 79.4716 110.552H66.7496C66.7057 110.552 66.6801 110.541 66.6727 110.519C66.6654 110.491 66.6618 110.473 66.6618 110.466V110.315V110.003Z" fill="#C5B37B"/>
<path d="M86.354 100.664C86.398 100.664 86.4236 100.689 86.4309 100.739C86.4382 100.789 86.4419 100.825 86.4419 100.847C86.4345 100.904 86.376 100.947 86.2662 100.976C86.1565 100.997 86.0357 101.029 85.904 101.072C85.7723 101.108 85.6515 101.165 85.5418 101.244C85.432 101.323 85.3771 101.441 85.3771 101.599C85.3771 101.663 85.3844 101.728 85.3991 101.792C85.4137 101.857 85.4393 101.907 85.4759 101.943L86.9139 103.673C86.9724 103.738 87.0309 103.809 87.0895 103.888C87.1554 103.96 87.2175 103.996 87.2761 103.996C87.3127 103.996 87.3602 103.96 87.4188 103.888L88.7031 102.383C88.7982 102.276 88.8677 102.183 88.9116 102.104C88.9555 102.018 88.9775 101.907 88.9775 101.771C88.9775 101.556 88.9189 101.409 88.8019 101.33C88.6848 101.244 88.5531 101.183 88.4067 101.148C88.2677 101.105 88.1396 101.065 88.0225 101.029C87.9054 100.993 87.8469 100.915 87.8469 100.793C87.8469 100.764 87.8505 100.736 87.8579 100.707C87.8725 100.678 87.9091 100.664 87.9676 100.664H91.6229C91.6668 100.664 91.6924 100.675 91.6997 100.696C91.707 100.71 91.7107 100.761 91.7107 100.847C91.7107 100.875 91.707 100.911 91.6997 100.954C91.6924 100.997 91.6668 101.029 91.6229 101.051C91.4107 101.108 91.2277 101.173 91.0741 101.244C90.9204 101.309 90.7777 101.388 90.646 101.481C90.5142 101.574 90.3862 101.685 90.2618 101.814C90.1447 101.936 90.013 102.083 89.8666 102.255L87.8579 104.597C87.8359 104.633 87.8213 104.662 87.814 104.683C87.814 104.698 87.814 104.726 87.814 104.769L91.7656 109.574C91.8388 109.667 91.9376 109.742 92.062 109.799C92.1937 109.849 92.3181 109.9 92.4352 109.95C92.5596 110 92.6657 110.057 92.7535 110.122C92.8413 110.179 92.8852 110.258 92.8852 110.358C92.8852 110.423 92.8779 110.466 92.8633 110.487C92.8486 110.509 92.812 110.53 92.7535 110.552H87.6493C87.5908 110.552 87.5578 110.523 87.5505 110.466C87.5432 110.408 87.5395 110.369 87.5395 110.347C87.5395 110.254 87.5981 110.2 87.7152 110.186C87.8396 110.165 87.9749 110.143 88.1213 110.122C88.275 110.1 88.4104 110.057 88.5274 109.993C88.6518 109.928 88.714 109.799 88.714 109.606C88.714 109.505 88.6811 109.416 88.6153 109.337C88.5567 109.258 88.4982 109.187 88.4396 109.122L86.5516 106.951C86.4931 106.872 86.4455 106.811 86.4089 106.768C86.3797 106.725 86.3138 106.704 86.2114 106.704C86.1235 106.704 86.0504 106.743 85.9918 106.822C85.9406 106.894 85.8857 106.958 85.8272 107.016L84.2136 108.896C84.1185 109.004 84.0562 109.115 84.027 109.23C83.9977 109.337 83.9831 109.423 83.9831 109.488C83.9831 109.617 84.0306 109.731 84.1258 109.831C84.2282 109.925 84.349 110.003 84.488 110.068C84.627 110.125 84.7661 110.168 84.9051 110.197C85.0442 110.226 85.1576 110.24 85.2454 110.24C85.2747 110.24 85.293 110.258 85.3003 110.294C85.3149 110.329 85.3222 110.365 85.3222 110.401C85.3222 110.437 85.3149 110.473 85.3003 110.509C85.293 110.537 85.2747 110.552 85.2454 110.552H81.5023C81.4218 110.552 81.3706 110.537 81.3486 110.509C81.334 110.473 81.3267 110.423 81.3267 110.358C81.3267 110.294 81.3852 110.226 81.5023 110.154C81.6194 110.082 81.7511 110.014 81.8975 109.95C82.0512 109.878 82.2012 109.806 82.3475 109.735C82.5012 109.656 82.611 109.577 82.6768 109.498L85.6954 105.919L82.117 101.513C82.0585 101.448 81.9743 101.391 81.8646 101.341C81.7621 101.284 81.656 101.234 81.5462 101.191C81.4365 101.14 81.3413 101.09 81.2608 101.04C81.1877 100.99 81.1511 100.936 81.1511 100.879C81.1657 100.736 81.2535 100.664 81.4145 100.664H86.354Z" fill="#C5B37B"/>
<path d="M97.1991 100.127C97.2283 100.112 97.2576 100.098 97.2869 100.084C97.3235 100.069 97.3491 100.062 97.3637 100.062C97.4881 100.062 97.5503 100.148 97.5503 100.32V101.459C97.5503 101.495 97.565 101.524 97.5942 101.545C97.6308 101.567 97.6601 101.577 97.6821 101.577C97.7186 101.577 97.7516 101.57 97.7808 101.556C97.8174 101.534 97.8504 101.517 97.8796 101.502C98.1723 101.33 98.4358 101.187 98.67 101.072C98.9041 100.95 99.1273 100.857 99.3395 100.793C99.5518 100.721 99.7713 100.671 99.9981 100.642C100.225 100.614 100.481 100.599 100.767 100.599C101.389 100.599 101.945 100.746 102.435 101.04C102.933 101.327 103.353 101.706 103.697 102.179C104.041 102.645 104.305 103.172 104.488 103.759C104.671 104.347 104.762 104.938 104.762 105.532C104.762 105.97 104.7 106.407 104.575 106.844C104.451 107.281 104.279 107.696 104.06 108.09C103.84 108.477 103.577 108.839 103.269 109.176C102.962 109.513 102.622 109.806 102.248 110.057C101.882 110.301 101.487 110.491 101.063 110.627C100.646 110.77 100.214 110.842 99.7676 110.842C99.4383 110.842 99.1163 110.82 98.8017 110.777C98.4943 110.734 98.154 110.673 97.7808 110.595C97.6564 110.595 97.5869 110.638 97.5723 110.723C97.565 110.809 97.5576 110.899 97.5503 110.992V115.366C97.5503 115.574 97.5942 115.746 97.6821 115.882C97.7772 116.026 97.8943 116.14 98.0333 116.226C98.1797 116.319 98.337 116.387 98.5053 116.43C98.6809 116.481 98.8492 116.52 99.0102 116.549C99.1712 116.577 99.3176 116.599 99.4493 116.613C99.581 116.635 99.6798 116.66 99.7457 116.688C99.8189 116.717 99.8554 116.764 99.8554 116.828C99.8554 116.928 99.8189 116.986 99.7457 117H93.4121C93.3389 116.986 93.3023 116.928 93.3023 116.828C93.3023 116.764 93.3389 116.717 93.4121 116.688C93.5072 116.645 93.6426 116.61 93.8182 116.581C93.9939 116.559 94.1695 116.509 94.3451 116.43C94.5207 116.359 94.6744 116.241 94.8061 116.076C94.9379 115.918 95.0037 115.682 95.0037 115.366V103.093C95.0037 102.921 94.9562 102.788 94.861 102.695C94.7659 102.595 94.6451 102.52 94.4988 102.469C94.3524 102.419 94.1951 102.38 94.0268 102.351C93.8585 102.315 93.6975 102.276 93.5438 102.233C93.4999 102.219 93.4633 102.201 93.434 102.179C93.4121 102.151 93.4011 102.097 93.4011 102.018C93.4011 101.982 93.4121 101.946 93.434 101.911C93.456 101.875 93.4999 101.839 93.5658 101.803L97.1991 100.127ZM99.7896 101.814C99.3944 101.814 99.0322 101.868 98.7029 101.975C98.3809 102.083 98.0516 102.258 97.715 102.502C97.7003 102.509 97.6821 102.523 97.6601 102.545C97.6455 102.559 97.6308 102.573 97.6162 102.588L97.5503 102.652V108.391C97.5503 108.413 97.554 108.474 97.5613 108.574C97.5686 108.667 97.5796 108.753 97.5942 108.832C97.6162 108.982 97.7113 109.122 97.8796 109.251C98.0479 109.373 98.2382 109.48 98.4504 109.574C98.67 109.66 98.8858 109.728 99.098 109.778C99.3176 109.821 99.4932 109.842 99.6249 109.842C100.108 109.842 100.514 109.756 100.843 109.584C101.18 109.412 101.451 109.183 101.656 108.896C101.861 108.603 102.007 108.262 102.095 107.875C102.19 107.489 102.237 107.077 102.237 106.639C102.237 106.303 102.219 105.952 102.183 105.586C102.146 105.214 102.087 104.848 102.007 104.49C101.934 104.132 101.831 103.791 101.7 103.469C101.575 103.147 101.421 102.864 101.239 102.62C101.063 102.376 100.854 102.183 100.613 102.04C100.371 101.889 100.097 101.814 99.7896 101.814Z" fill="#C5B37B"/>
<path d="M106.079 106.199C106.079 105.361 106.2 104.59 106.441 103.888C106.683 103.179 107.031 102.566 107.484 102.05C107.938 101.534 108.49 101.133 109.142 100.847C109.8 100.56 110.547 100.417 111.381 100.417C111.63 100.417 111.853 100.435 112.051 100.47C112.248 100.499 112.427 100.542 112.588 100.599C112.757 100.65 112.91 100.714 113.049 100.793C113.196 100.865 113.342 100.943 113.489 101.029C113.657 101.115 113.847 101.269 114.059 101.491C114.279 101.714 114.484 101.972 114.674 102.265C114.864 102.559 115.025 102.874 115.157 103.211C115.289 103.541 115.355 103.859 115.355 104.168C115.355 104.268 115.333 104.379 115.289 104.501C115.252 104.615 115.186 104.673 115.091 104.673H108.615C108.542 104.673 108.49 104.737 108.461 104.866C108.439 104.995 108.428 105.153 108.428 105.339C108.428 105.97 108.52 106.532 108.703 107.026C108.893 107.514 109.145 107.929 109.46 108.273C109.775 108.61 110.137 108.868 110.547 109.047C110.957 109.219 111.388 109.305 111.842 109.305C112.127 109.305 112.402 109.269 112.665 109.197C112.929 109.119 113.181 109.018 113.423 108.896C113.664 108.775 113.891 108.638 114.103 108.488C114.315 108.338 114.517 108.187 114.707 108.037C114.751 108.022 114.78 108.015 114.795 108.015C114.817 108.015 114.846 108.033 114.883 108.069C114.948 108.126 115.014 108.194 115.08 108.273C115.146 108.345 115.197 108.406 115.234 108.456C115.256 108.477 115.267 108.499 115.267 108.52C115.267 108.542 115.252 108.567 115.223 108.596C114.981 108.875 114.685 109.151 114.334 109.423C113.983 109.688 113.606 109.928 113.203 110.143C112.808 110.351 112.402 110.519 111.985 110.648C111.568 110.777 111.172 110.842 110.799 110.842C110.046 110.842 109.376 110.709 108.791 110.444C108.205 110.172 107.711 109.817 107.309 109.38C106.906 108.943 106.599 108.449 106.387 107.897C106.182 107.338 106.079 106.772 106.079 106.199ZM112.523 103.845C112.713 103.845 112.808 103.763 112.808 103.598C112.808 103.319 112.76 103.057 112.665 102.813C112.577 102.563 112.449 102.344 112.281 102.158C112.113 101.964 111.908 101.814 111.666 101.706C111.432 101.599 111.169 101.545 110.876 101.545C110.525 101.545 110.217 101.62 109.954 101.771C109.691 101.914 109.467 102.09 109.284 102.298C109.102 102.505 108.962 102.72 108.867 102.942C108.78 103.164 108.736 103.354 108.736 103.512C108.736 103.634 108.754 103.72 108.791 103.77C108.827 103.82 108.875 103.845 108.933 103.845H112.523Z" fill="#C5B37B"/>
<path d="M119.987 100.46C120.016 100.445 120.045 100.431 120.075 100.417C120.111 100.402 120.137 100.395 120.151 100.395C120.276 100.395 120.338 100.481 120.338 100.653V102.48C120.338 102.502 120.338 102.53 120.338 102.566C120.345 102.595 120.367 102.609 120.404 102.609C120.44 102.609 120.47 102.598 120.492 102.577C120.514 102.548 120.536 102.523 120.558 102.502C120.689 102.33 120.836 102.14 120.997 101.932C121.165 101.717 121.341 101.517 121.524 101.33C121.714 101.144 121.908 100.99 122.105 100.868C122.303 100.739 122.497 100.675 122.687 100.675C122.819 100.675 122.991 100.71 123.203 100.782C123.415 100.854 123.62 100.94 123.818 101.04C124.023 101.133 124.195 101.234 124.334 101.341C124.48 101.441 124.553 101.524 124.553 101.588C124.553 101.653 124.52 101.774 124.454 101.954C124.388 102.126 124.304 102.301 124.202 102.48C124.107 102.659 124.001 102.821 123.884 102.964C123.774 103.1 123.671 103.168 123.576 103.168H123.554C123.423 103.125 123.287 103.075 123.148 103.018C123.016 102.953 122.881 102.892 122.742 102.835C122.603 102.77 122.46 102.72 122.314 102.684C122.175 102.641 122.032 102.62 121.886 102.62C121.666 102.62 121.461 102.667 121.271 102.76C121.081 102.846 120.916 102.96 120.777 103.104C120.645 103.24 120.539 103.394 120.459 103.566C120.378 103.738 120.338 103.902 120.338 104.06V108.596C120.338 108.803 120.382 108.979 120.47 109.122C120.565 109.258 120.682 109.373 120.821 109.466C120.967 109.552 121.125 109.62 121.293 109.67C121.469 109.713 121.637 109.749 121.798 109.778C121.959 109.806 122.105 109.831 122.237 109.853C122.369 109.867 122.468 109.889 122.533 109.917C122.607 109.946 122.643 110.046 122.643 110.218C122.643 110.426 122.607 110.537 122.533 110.552H116.2C116.127 110.537 116.09 110.426 116.09 110.218C116.09 110.046 116.127 109.946 116.2 109.917C116.295 109.874 116.43 109.842 116.606 109.821C116.782 109.792 116.957 109.742 117.133 109.67C117.308 109.591 117.462 109.473 117.594 109.316C117.726 109.151 117.791 108.911 117.791 108.596V103.426C117.791 103.254 117.744 103.121 117.649 103.028C117.554 102.928 117.433 102.853 117.287 102.803C117.14 102.752 116.983 102.713 116.815 102.684C116.646 102.649 116.485 102.609 116.332 102.566C116.288 102.552 116.251 102.534 116.222 102.512C116.2 102.484 116.189 102.43 116.189 102.351C116.189 102.315 116.2 102.28 116.222 102.244C116.244 102.208 116.288 102.172 116.353 102.136L119.987 100.46Z" fill="#C5B37B"/>
<path d="M125.332 110.552C125.289 110.537 125.259 110.491 125.245 110.412C125.23 110.326 125.223 110.261 125.223 110.218C125.223 110.183 125.234 110.125 125.256 110.046C125.278 109.968 125.303 109.921 125.332 109.907C125.428 109.864 125.563 109.831 125.739 109.81C125.914 109.781 126.09 109.731 126.265 109.66C126.441 109.581 126.595 109.462 126.727 109.305C126.858 109.14 126.924 108.9 126.924 108.585V103.426C126.924 103.254 126.877 103.121 126.781 103.028C126.686 102.928 126.566 102.853 126.419 102.803C126.273 102.752 126.115 102.713 125.947 102.684C125.779 102.649 125.618 102.609 125.464 102.566C125.42 102.552 125.384 102.534 125.354 102.512C125.332 102.484 125.321 102.43 125.321 102.351C125.321 102.315 125.332 102.28 125.354 102.244C125.376 102.208 125.42 102.172 125.486 102.136L129.119 100.46C129.149 100.445 129.178 100.431 129.207 100.417C129.244 100.402 129.269 100.395 129.284 100.395C129.408 100.395 129.471 100.481 129.471 100.653V108.585C129.471 108.9 129.537 109.14 129.668 109.305C129.8 109.462 129.954 109.581 130.129 109.66C130.305 109.731 130.481 109.781 130.656 109.81C130.832 109.831 130.967 109.864 131.062 109.907C131.092 109.921 131.117 109.968 131.139 110.046C131.161 110.125 131.172 110.183 131.172 110.218C131.172 110.261 131.165 110.326 131.15 110.412C131.136 110.491 131.106 110.537 131.062 110.552H125.332ZM126.452 96.5046C126.452 96.0461 126.591 95.6807 126.869 95.4084C127.147 95.1361 127.521 95 127.989 95C128.457 95 128.83 95.1361 129.108 95.4084C129.387 95.6807 129.526 96.0461 129.526 96.5046C129.526 96.9632 129.387 97.3286 129.108 97.6009C128.83 97.866 128.457 97.9985 127.989 97.9985C127.521 97.9985 127.147 97.866 126.869 97.6009C126.591 97.3286 126.452 96.9632 126.452 96.5046Z" fill="#C5B37B"/>
<path d="M132.489 106.199C132.489 105.361 132.61 104.59 132.852 103.888C133.093 103.179 133.441 102.566 133.894 102.05C134.348 101.534 134.901 101.133 135.552 100.847C136.21 100.56 136.957 100.417 137.791 100.417C138.04 100.417 138.263 100.435 138.461 100.47C138.658 100.499 138.838 100.542 138.999 100.599C139.167 100.65 139.32 100.714 139.46 100.793C139.606 100.865 139.752 100.943 139.899 101.029C140.067 101.115 140.257 101.269 140.469 101.491C140.689 101.714 140.894 101.972 141.084 102.265C141.274 102.559 141.435 102.874 141.567 103.211C141.699 103.541 141.765 103.859 141.765 104.168C141.765 104.268 141.743 104.379 141.699 104.501C141.662 104.615 141.596 104.673 141.501 104.673H135.025C134.952 104.673 134.901 104.737 134.871 104.866C134.849 104.995 134.838 105.153 134.838 105.339C134.838 105.97 134.93 106.532 135.113 107.026C135.303 107.514 135.555 107.929 135.87 108.273C136.185 108.61 136.547 108.868 136.957 109.047C137.367 109.219 137.798 109.305 138.252 109.305C138.537 109.305 138.812 109.269 139.075 109.197C139.339 109.119 139.591 109.018 139.833 108.896C140.074 108.775 140.301 108.638 140.513 108.488C140.726 108.338 140.927 108.187 141.117 108.037C141.161 108.022 141.19 108.015 141.205 108.015C141.227 108.015 141.256 108.033 141.293 108.069C141.359 108.126 141.424 108.194 141.49 108.273C141.556 108.345 141.607 108.406 141.644 108.456C141.666 108.477 141.677 108.499 141.677 108.52C141.677 108.542 141.662 108.567 141.633 108.596C141.391 108.875 141.095 109.151 140.744 109.423C140.393 109.688 140.016 109.928 139.613 110.143C139.218 110.351 138.812 110.519 138.395 110.648C137.978 110.777 137.583 110.842 137.209 110.842C136.456 110.842 135.786 110.709 135.201 110.444C134.615 110.172 134.121 109.817 133.719 109.38C133.316 108.943 133.009 108.449 132.797 107.897C132.592 107.338 132.489 106.772 132.489 106.199ZM138.933 103.845C139.123 103.845 139.218 103.763 139.218 103.598C139.218 103.319 139.17 103.057 139.075 102.813C138.988 102.563 138.859 102.344 138.691 102.158C138.523 101.964 138.318 101.814 138.076 101.706C137.842 101.599 137.579 101.545 137.286 101.545C136.935 101.545 136.628 101.62 136.364 101.771C136.101 101.914 135.877 102.09 135.695 102.298C135.512 102.505 135.373 102.72 135.277 102.942C135.19 103.164 135.146 103.354 135.146 103.512C135.146 103.634 135.164 103.72 135.201 103.77C135.237 103.82 135.285 103.845 135.343 103.845H138.933Z" fill="#C5B37B"/>
<path d="M146.133 100.127C146.163 100.112 146.192 100.098 146.221 100.084C146.258 100.069 146.283 100.062 146.298 100.062C146.422 100.062 146.485 100.148 146.485 100.32V101.997C146.507 102.068 146.536 102.104 146.572 102.104C146.609 102.104 146.638 102.104 146.66 102.104C146.682 102.097 146.712 102.083 146.748 102.061C147.216 101.825 147.612 101.628 147.934 101.47C148.263 101.305 148.545 101.169 148.779 101.062C149.02 100.947 149.232 100.861 149.415 100.804C149.606 100.739 149.796 100.693 149.986 100.664C150.176 100.628 150.385 100.607 150.612 100.599C150.839 100.592 151.117 100.589 151.446 100.589C151.805 100.589 152.116 100.664 152.379 100.814C152.643 100.965 152.862 101.165 153.038 101.416C153.221 101.66 153.367 101.943 153.477 102.265C153.594 102.581 153.682 102.907 153.74 103.243C153.799 103.573 153.839 103.902 153.861 104.232C153.883 104.554 153.894 104.848 153.894 105.113C153.894 105.364 153.887 105.597 153.872 105.812C153.865 106.027 153.854 106.263 153.839 106.521C153.832 106.772 153.821 107.059 153.806 107.381C153.799 107.703 153.795 108.094 153.795 108.553C153.795 108.767 153.835 108.947 153.916 109.09C153.996 109.233 154.099 109.351 154.223 109.445C154.355 109.538 154.498 109.609 154.651 109.66C154.805 109.702 154.955 109.738 155.101 109.767C155.248 109.796 155.379 109.821 155.497 109.842C155.621 109.857 155.716 109.878 155.782 109.907C155.811 109.921 155.837 109.968 155.859 110.046C155.881 110.125 155.892 110.183 155.892 110.218C155.892 110.261 155.884 110.326 155.87 110.412C155.855 110.491 155.826 110.537 155.782 110.552H149.657C149.613 110.537 149.584 110.491 149.569 110.412C149.554 110.326 149.547 110.261 149.547 110.218C149.547 110.183 149.558 110.125 149.58 110.046C149.602 109.968 149.628 109.921 149.657 109.907C149.752 109.864 149.876 109.831 150.03 109.81C150.191 109.781 150.352 109.724 150.513 109.638C150.681 109.552 150.831 109.423 150.963 109.251C151.102 109.072 151.194 108.81 151.238 108.467C151.252 108.359 151.263 108.259 151.271 108.166C151.285 108.072 151.296 107.979 151.303 107.886C151.311 107.786 151.314 107.678 151.314 107.564C151.322 107.449 151.325 107.317 151.325 107.166C151.325 106.844 151.322 106.5 151.314 106.134C151.307 105.769 151.303 105.361 151.303 104.909C151.303 104.558 151.285 104.211 151.249 103.867C151.219 103.523 151.139 103.215 151.007 102.942C150.883 102.67 150.696 102.448 150.447 102.276C150.198 102.104 149.855 102.018 149.415 102.018C149.262 102.018 149.123 102.029 148.998 102.05C148.881 102.065 148.735 102.104 148.559 102.169C148.391 102.233 148.168 102.33 147.89 102.459C147.612 102.588 147.238 102.763 146.77 102.985C146.711 103.021 146.649 103.064 146.583 103.114C146.525 103.157 146.492 103.215 146.485 103.286V108.553C146.485 108.875 146.551 109.122 146.682 109.294C146.814 109.459 146.968 109.581 147.143 109.66C147.319 109.731 147.495 109.781 147.67 109.81C147.846 109.831 147.981 109.864 148.076 109.907C148.106 109.921 148.131 109.968 148.153 110.046C148.175 110.125 148.186 110.183 148.186 110.218C148.186 110.261 148.179 110.326 148.164 110.412C148.149 110.491 148.12 110.537 148.076 110.552H142.346C142.303 110.537 142.273 110.491 142.259 110.412C142.244 110.326 142.237 110.261 142.237 110.218C142.237 110.183 142.248 110.125 142.27 110.046C142.292 109.968 142.317 109.921 142.346 109.907C142.442 109.864 142.577 109.831 142.753 109.81C142.928 109.781 143.104 109.731 143.279 109.66C143.455 109.581 143.609 109.459 143.74 109.294C143.872 109.122 143.938 108.875 143.938 108.553V103.093C143.938 102.921 143.89 102.788 143.795 102.695C143.7 102.595 143.579 102.52 143.433 102.469C143.287 102.419 143.129 102.38 142.961 102.351C142.793 102.315 142.632 102.276 142.478 102.233C142.434 102.219 142.398 102.201 142.368 102.179C142.346 102.151 142.335 102.097 142.335 102.018C142.335 101.982 142.346 101.946 142.368 101.911C142.39 101.875 142.434 101.839 142.5 101.803L146.133 100.127Z" fill="#C5B37B"/>
<path d="M157.099 106.005C157.106 104.966 157.267 104.092 157.582 103.383C157.897 102.667 158.318 102.09 158.844 101.653C159.371 101.216 159.982 100.9 160.678 100.707C161.38 100.513 162.116 100.417 162.884 100.417C163.045 100.417 163.235 100.424 163.455 100.438C163.682 100.445 163.912 100.467 164.146 100.503C164.388 100.531 164.622 100.578 164.849 100.642C165.083 100.707 165.291 100.796 165.474 100.911C165.665 101.019 165.815 101.155 165.924 101.319C166.042 101.477 166.1 101.671 166.1 101.9C166.1 102.072 166.067 102.212 166.001 102.319C165.935 102.419 165.844 102.502 165.727 102.566C165.61 102.624 165.474 102.663 165.321 102.684C165.167 102.706 165.002 102.717 164.827 102.717C164.622 102.717 164.446 102.684 164.3 102.62C164.161 102.548 164.033 102.466 163.916 102.373C163.799 102.272 163.689 102.165 163.586 102.05C163.484 101.929 163.371 101.821 163.246 101.728C163.129 101.628 162.994 101.545 162.84 101.481C162.686 101.409 162.5 101.373 162.28 101.373C161.768 101.373 161.347 101.502 161.018 101.76C160.689 102.011 160.429 102.333 160.239 102.727C160.056 103.114 159.928 103.541 159.854 104.006C159.788 104.472 159.756 104.916 159.756 105.339C159.756 105.912 159.81 106.442 159.92 106.93C160.03 107.41 160.206 107.825 160.447 108.176C160.696 108.527 161.014 108.803 161.402 109.004C161.797 109.197 162.273 109.294 162.829 109.294C163.034 109.294 163.235 109.262 163.433 109.197C163.638 109.133 163.832 109.047 164.015 108.939C164.205 108.825 164.38 108.696 164.541 108.553C164.71 108.409 164.863 108.255 165.002 108.09C165.076 108.004 165.145 107.933 165.211 107.875C165.284 107.818 165.394 107.789 165.54 107.789C165.716 107.789 165.866 107.836 165.99 107.929C166.122 108.015 166.188 108.108 166.188 108.209C166.188 108.237 166.181 108.277 166.166 108.327C166.159 108.37 166.122 108.434 166.056 108.52C165.778 108.864 165.478 109.179 165.156 109.466C164.834 109.753 164.49 109.996 164.124 110.197C163.758 110.397 163.363 110.552 162.939 110.659C162.522 110.774 162.075 110.831 161.6 110.831C160.97 110.831 160.381 110.695 159.832 110.423C159.291 110.143 158.815 109.778 158.405 109.326C158.003 108.868 157.685 108.352 157.45 107.779C157.216 107.198 157.099 106.607 157.099 106.005Z" fill="#C5B37B"/>
<path d="M167.725 106.199C167.725 105.361 167.845 104.59 168.087 103.888C168.328 103.179 168.676 102.566 169.13 102.05C169.583 101.534 170.136 101.133 170.787 100.847C171.446 100.56 172.192 100.417 173.026 100.417C173.275 100.417 173.498 100.435 173.696 100.47C173.894 100.499 174.073 100.542 174.234 100.599C174.402 100.65 174.556 100.714 174.695 100.793C174.841 100.865 174.988 100.943 175.134 101.029C175.302 101.115 175.493 101.269 175.705 101.491C175.924 101.714 176.129 101.972 176.319 102.265C176.51 102.559 176.671 102.874 176.802 103.211C176.934 103.541 177 103.859 177 104.168C177 104.268 176.978 104.379 176.934 104.501C176.898 104.615 176.832 104.673 176.737 104.673H170.26C170.187 104.673 170.136 104.737 170.107 104.866C170.085 104.995 170.074 105.153 170.074 105.339C170.074 105.97 170.165 106.532 170.348 107.026C170.538 107.514 170.791 107.929 171.105 108.273C171.42 108.61 171.782 108.868 172.192 109.047C172.602 109.219 173.034 109.305 173.487 109.305C173.773 109.305 174.047 109.269 174.311 109.197C174.574 109.119 174.827 109.018 175.068 108.896C175.31 108.775 175.536 108.638 175.749 108.488C175.961 108.338 176.162 108.187 176.352 108.037C176.396 108.022 176.426 108.015 176.44 108.015C176.462 108.015 176.491 108.033 176.528 108.069C176.594 108.126 176.66 108.194 176.726 108.273C176.791 108.345 176.843 108.406 176.879 108.456C176.901 108.477 176.912 108.499 176.912 108.52C176.912 108.542 176.898 108.567 176.868 108.596C176.627 108.875 176.33 109.151 175.979 109.423C175.628 109.688 175.251 109.928 174.849 110.143C174.453 110.351 174.047 110.519 173.63 110.648C173.213 110.777 172.818 110.842 172.445 110.842C171.691 110.842 171.021 110.709 170.436 110.444C169.85 110.172 169.357 109.817 168.954 109.38C168.552 108.943 168.244 108.449 168.032 107.897C167.827 107.338 167.725 106.772 167.725 106.199ZM174.168 103.845C174.358 103.845 174.453 103.763 174.453 103.598C174.453 103.319 174.406 103.057 174.311 102.813C174.223 102.563 174.095 102.344 173.927 102.158C173.758 101.964 173.553 101.814 173.312 101.706C173.078 101.599 172.814 101.545 172.521 101.545C172.17 101.545 171.863 101.62 171.599 101.771C171.336 101.914 171.113 102.09 170.93 102.298C170.747 102.505 170.608 102.72 170.513 102.942C170.425 103.164 170.381 103.354 170.381 103.512C170.381 103.634 170.399 103.72 170.436 103.77C170.472 103.82 170.52 103.845 170.579 103.845H174.168Z" fill="#C5B37B"/>
</svg>
