<svg width="177" height="117" fill="none" xmlns="http://www.w3.org/2000/svg"><path d="M0 51.352c0-5.313.82-10.118 2.46-14.414 1.642-4.297 4.103-8.32 7.384-12.07 3.281-3.79 7.363-7.403 12.246-10.84 4.922-3.477 10.664-7.012 17.226-10.606.352-.195.899-.469 1.641-.82a48.669 48.669 0 0 1 2.402-1.055c.86-.352 1.72-.645 2.578-.879.899-.273 1.7-.41 2.403-.41 1.289 0 2.207.058 2.754.176.586.117.879.449.879.996 0 .39-.489.957-1.465 1.699a41.184 41.184 0 0 1-3.34 2.226 511.63 511.63 0 0 1-3.809 2.286c-1.25.742-2.168 1.308-2.754 1.699-1.171.82-2.695 1.933-4.57 3.34a72.218 72.218 0 0 0-5.683 4.629 48.81 48.81 0 0 0-5.215 5.449c-1.563 1.875-2.637 3.71-3.223 5.508a15.876 15.876 0 0 1 1.992-.41c.782-.118 1.7-.176 2.754-.176 4.063 0 7.774.722 11.133 2.168 3.398 1.445 6.309 3.418 8.73 5.918 2.422 2.46 4.297 5.351 5.625 8.672 1.368 3.32 2.051 6.855 2.051 10.605 0 3.828-.683 7.422-2.05 10.781-1.368 3.32-3.282 6.23-5.743 8.73-2.46 2.462-5.39 4.415-8.789 5.86-3.36 1.406-7.031 2.11-11.015 2.11-2.891 0-5.567-.41-8.028-1.231a24.682 24.682 0 0 1-6.62-3.399 27.47 27.47 0 0 1-5.216-5.214 33.067 33.067 0 0 1-3.75-6.446 37.614 37.614 0 0 1-2.226-7.207A39.044 39.044 0 0 1 0 51.352zm27.305 26.425c2.343 0 4.297-.644 5.86-1.933 1.562-1.328 2.812-3.008 3.75-5.04.937-2.07 1.6-4.355 1.991-6.855.39-2.5.586-4.941.586-7.324 0-3.047-.215-5.996-.644-8.848-.43-2.89-1.192-5.43-2.285-7.617-1.094-2.226-2.579-4.004-4.454-5.332-1.875-1.367-4.277-2.05-7.207-2.05-2.187 0-3.984.566-5.39 1.699-1.407 1.093-2.5 2.636-3.282 4.629-.78 1.953-1.328 4.257-1.64 6.913-.274 2.657-.41 5.528-.41 8.614 0 1.601.078 3.3.234 5.097a39.18 39.18 0 0 0 .82 5.215 32.79 32.79 0 0 0 1.524 4.922 17.866 17.866 0 0 0 2.46 4.102 11.417 11.417 0 0 0 3.458 2.812c1.328.664 2.87.996 4.629.996zm61.816 4.746c-4.453 0-8.379-.996-11.777-2.988-3.399-2.031-6.25-4.844-8.555-8.437-2.266-3.633-3.984-7.97-5.156-13.008-1.172-5.04-1.758-10.586-1.758-16.64 0-3.204.254-6.446.762-9.727a62.027 62.027 0 0 1 2.344-9.551c1.015-3.086 2.285-5.957 3.808-8.613 1.563-2.696 3.34-5.02 5.332-6.973 2.031-1.992 4.297-3.555 6.797-4.688C83.418.727 86.152.141 89.121.141c2.969 0 5.684.566 8.145 1.699a22.001 22.001 0 0 1 6.679 4.687c1.953 1.993 3.653 4.336 5.098 7.032 1.484 2.656 2.695 5.527 3.633 8.613a57.708 57.708 0 0 1 2.168 9.55 63.87 63.87 0 0 1 .761 9.786c0 6.054-.546 11.601-1.64 16.64-1.094 5.04-2.754 9.375-4.981 13.008-2.187 3.594-4.941 6.387-8.261 8.38-3.282 1.991-7.149 2.987-11.602 2.987zM75.703 41.508c0 3.047.059 6.074.176 9.082.117 2.969.352 5.82.703 8.554.352 2.696.82 5.196 1.406 7.5.625 2.305 1.426 4.297 2.403 5.977 1.015 1.68 2.226 3.008 3.632 3.985 1.446.937 3.145 1.406 5.098 1.406 1.953 0 3.633-.489 5.04-1.465 1.405-.977 2.577-2.305 3.515-3.984.937-1.72 1.68-3.75 2.226-6.094.547-2.344.957-4.863 1.231-7.559.273-2.734.449-5.586.527-8.554.078-2.97.117-5.958.117-8.965 0-2.461-.078-5.078-.234-7.852a94.315 94.315 0 0 0-.703-8.262 66.131 66.131 0 0 0-1.348-7.793c-.586-2.5-1.348-4.687-2.285-6.562-.938-1.914-2.07-3.438-3.398-4.57-1.328-1.133-2.871-1.7-4.63-1.7-1.952 0-3.652.567-5.097 1.7-1.445 1.132-2.676 2.656-3.691 4.57-.977 1.914-1.778 4.121-2.403 6.621a68.25 68.25 0 0 0-1.465 7.852 115.795 115.795 0 0 0-.644 8.261c-.117 2.774-.176 5.39-.176 7.852zm47.813-2.637h21.386V16.664h10.957v22.207h21.094v10.957h-21.094v21.973h-10.957V49.828h-21.386V38.871zM7.772 105.242a.169.169 0 0 0-.033-.107l-4.49-7.029a9.337 9.337 0 0 0-.406-.58 3.847 3.847 0 0 0-.472-.56 2.848 2.848 0 0 0-.56-.461 1.948 1.948 0 0 0-.647-.29 10.683 10.683 0 0 0-.176-.033 2.594 2.594 0 0 0-.253-.053 17.785 17.785 0 0 1-.428-.076c-.073-.007-.142-.05-.208-.129C.033 95.838 0 95.764 0 95.7v-.076l.022-.096a.252.252 0 0 1 .055-.086.105.105 0 0 1 .088-.043h7.453c.08 0 .132.035.154.107a.668.668 0 0 1 .032.194c0 .071-.007.147-.021.225-.008.08-.048.118-.121.118l-.56.043a1.33 1.33 0 0 0-.45.108.638.638 0 0 0-.296.236c-.074.108-.11.258-.11.452a.84.84 0 0 0 .131.462l3.348 5.266c.08.122.132.197.154.226.03.029.073.043.132.043.051 0 .095-.029.132-.086.043-.057.095-.133.153-.226l2.646-4.395a7.51 7.51 0 0 0 .307-.549c.11-.2.165-.404.165-.612 0-.2-.03-.359-.088-.473a.572.572 0 0 0-.242-.28 1.225 1.225 0 0 0-.406-.14 6.923 6.923 0 0 0-.538-.075c-.08-.007-.128-.05-.142-.129a.932.932 0 0 1 0-.398c.021-.078.076-.117.164-.117h5.521c.06 0 .1.043.121.129a.734.734 0 0 1 .033.172.246.246 0 0 1-.077.182.554.554 0 0 1-.175.13 1.563 1.563 0 0 1-.22.075 10.1 10.1 0 0 0-.208.043 2.649 2.649 0 0 0-.955.397 4.74 4.74 0 0 0-.78.677 5.567 5.567 0 0 0-.164.172 1.467 1.467 0 0 0-.11.14l-4.248 7.147v3.794c0 .43.113.763.34.999.227.237.63.384 1.208.441.08.007.183.011.307.011h.318c.037 0 .059.01.066.032a.1.1 0 0 1 .022.054v.473a.1.1 0 0 1-.022.053c-.007.022-.03.033-.066.033H5.598c-.036 0-.062-.011-.077-.033a.169.169 0 0 1-.01-.053v-.473c0-.015.003-.033.01-.054.015-.022.04-.032.077-.032h.307c.132 0 .238-.004.319-.011.578-.057.98-.204 1.207-.441.227-.236.34-.569.34-.999v-3.214zm8.013.957c0-.838.12-1.609.362-2.311a5.37 5.37 0 0 1 1.043-1.838 4.683 4.683 0 0 1 1.657-1.203c.659-.287 1.405-.43 2.24-.43.248 0 .471.018.669.053.197.029.377.072.538.129.168.051.322.115.46.194.147.072.293.15.44.236.168.086.358.24.57.462.22.223.425.481.615.774.19.294.352.609.483.946.132.33.198.648.198.957a.99.99 0 0 1-.066.333c-.037.114-.102.172-.197.172H18.32c-.073 0-.124.064-.154.193a2.887 2.887 0 0 0-.032.473c0 .631.091 1.193.274 1.687.19.488.443.903.757 1.247.315.337.677.595 1.087.774a3.313 3.313 0 0 0 2.119.15 4.53 4.53 0 0 0 .757-.301 5.27 5.27 0 0 0 .68-.408c.213-.15.414-.301.604-.451a.343.343 0 0 1 .088-.022c.022 0 .051.018.088.054.066.057.132.125.197.204.066.072.118.133.154.183.022.021.033.043.033.064 0 .022-.015.047-.044.076a6.157 6.157 0 0 1-.889.827 8.614 8.614 0 0 1-1.13.72 7.14 7.14 0 0 1-1.219.505 4.017 4.017 0 0 1-1.185.194c-.754 0-1.424-.133-2.01-.398a4.65 4.65 0 0 1-1.481-1.064 4.614 4.614 0 0 1-.922-1.483 4.9 4.9 0 0 1-.307-1.698zm6.443-2.354c.19 0 .285-.082.285-.247 0-.279-.047-.541-.142-.785a1.907 1.907 0 0 0-.385-.655 1.744 1.744 0 0 0-.614-.452 1.88 1.88 0 0 0-.79-.161c-.352 0-.66.075-.923.226a2.417 2.417 0 0 0-.67.527 2.408 2.408 0 0 0-.416.644 1.598 1.598 0 0 0-.132.57c0 .122.018.208.055.258a.17.17 0 0 0 .143.075h3.589zm9.264 6.492a2.93 2.93 0 0 1-.856.386c-.33.094-.659.14-.988.14-.893 0-1.573-.197-2.041-.591-.462-.394-.692-.928-.692-1.601 0-.387.088-.72.263-1 .183-.279.45-.526.802-.741a6.38 6.38 0 0 1 1.295-.581c.52-.179 1.12-.354 1.8-.526a4.67 4.67 0 0 0 .878-.301c.227-.108.436-.212.626-.312.124-.064.194-.122.209-.172a.35.35 0 0 0 .033-.14v-1.87a1.9 1.9 0 0 0-.11-.655 1.412 1.412 0 0 0-.813-.892 1.662 1.662 0 0 0-.67-.129c-.211 0-.409.036-.592.107-.183.072-.34.176-.472.312a1.593 1.593 0 0 0-.318.484 1.72 1.72 0 0 0-.11.634v.096l.022.14.022.118a.544.544 0 0 1 .01.065c-.006.014-.069.043-.186.086-.11.043-.248.093-.417.15-.16.05-.34.104-.538.161a44.25 44.25 0 0 0-.57.151c-.176.05-.333.097-.473.14a2.798 2.798 0 0 1-.274.064c-.08 0-.132-.039-.154-.118a1.483 1.483 0 0 1-.021-.247c0-.416.128-.821.384-1.215a3.86 3.86 0 0 1 1.02-1.042 5.583 5.583 0 0 1 1.482-.742 5.398 5.398 0 0 1 1.724-.279c.527 0 .999.068 1.416.204.417.129.772.312 1.064.548.293.229.516.498.67.806.154.301.23.623.23.967v5.127c0 .186.07.355.21.505a.768.768 0 0 0 .559.215.901.901 0 0 0 .351-.065c.11-.05.205-.103.286-.161l.22-.161c.058-.05.109-.075.153-.075.058 0 .091.025.099.075.007.043.01.082.01.118 0 .122-.018.247-.054.376a.44.44 0 0 1-.165.269 55.66 55.66 0 0 0-.955.72c-.278.208-.53.387-.757.538a3.96 3.96 0 0 1-.615.343 1.306 1.306 0 0 1-.516.119.69.69 0 0 1-.395-.119 1.378 1.378 0 0 1-.297-.29 2.232 2.232 0 0 1-.208-.365 10.56 10.56 0 0 1-.154-.376 26.96 26.96 0 0 1-.088-.28c-.022-.071-.04-.104-.054-.096l-1.285.978zm-2.02-1.924a.91.91 0 0 0 .11.473c.08.121.183.215.308.279.124.065.263.111.417.14.16.021.325.032.494.032.153 0 .344-.036.57-.107.227-.079.447-.18.66-.301a2.69 2.69 0 0 0 .559-.43c.154-.165.23-.33.23-.495v-1.773c0-.079-.029-.118-.087-.118a.09.09 0 0 0-.044.011l-2.547 1.16c-.102.072-.197.14-.285.205a.833.833 0 0 0-.209.214.823.823 0 0 0-.131.291c-.03.107-.044.247-.044.419zm12.316-7.953l.088-.043a.242.242 0 0 1 .077-.022c.124 0 .187.086.187.258v1.913c.007.029.029.043.066.043a.122.122 0 0 0 .087-.032.62.62 0 0 1 .066-.075c.132-.172.278-.362.44-.57.168-.215.343-.415.526-.602.19-.186.384-.34.582-.462.198-.129.392-.193.582-.193.132 0 .303.035.516.107.212.072.417.158.614.258.205.093.377.194.516.301.147.1.22.183.22.247 0 .065-.033.186-.099.366a3.79 3.79 0 0 1-.252.526 2.937 2.937 0 0 1-.319.484c-.11.136-.212.204-.307.204h-.022a5.891 5.891 0 0 1-.406-.15 6.43 6.43 0 0 0-.406-.183 2.31 2.31 0 0 0-.428-.151 1.44 1.44 0 0 0-1.043.076c-.19.086-.355.2-.494.344-.132.136-.238.29-.319.462-.08.172-.12.336-.12.494v4.536c0 .207.044.383.131.526.096.136.213.251.352.344.146.086.303.154.472.204.175.043.344.079.505.108l.439.075c.131.014.23.036.296.064.073.029.11.129.11.301 0 .208-.037.319-.11.334h-6.334c-.073-.015-.11-.126-.11-.334 0-.172.037-.272.11-.301.096-.043.231-.075.407-.096.175-.029.35-.079.526-.151a1.29 1.29 0 0 0 .462-.354c.131-.165.197-.405.197-.72v-5.17c0-.172-.047-.305-.143-.398a.884.884 0 0 0-.362-.225 2.963 2.963 0 0 0-.472-.119 7.333 7.333 0 0 1-.483-.118.368.368 0 0 1-.11-.054c-.022-.028-.033-.082-.033-.161 0-.036.011-.071.033-.107a.346.346 0 0 1 .132-.108l3.633-1.676zm6.971 1.418c-.147 0-.238-.046-.275-.139a.713.713 0 0 1-.055-.258.546.546 0 0 1 .088-.258c.059-.079.128-.151.209-.215a4.8 4.8 0 0 1 .241-.183 3.23 3.23 0 0 0 .23-.183c.103-.1.21-.211.32-.333.109-.122.208-.251.295-.387a2.47 2.47 0 0 0 .22-.419 1.13 1.13 0 0 0 .088-.43.57.57 0 0 0-.033-.182c-.015-.065-.084-.097-.209-.097a2.6 2.6 0 0 1-.724-.108 2.305 2.305 0 0 1-.67-.322 1.838 1.838 0 0 1-.505-.527 1.452 1.452 0 0 1-.186-.741c0-.273.044-.513.132-.72a1.43 1.43 0 0 1 .373-.538c.16-.143.347-.25.56-.322a2.13 2.13 0 0 1 .724-.118c.454 0 .82.086 1.098.258.285.164.505.369.658.612.154.237.256.487.308.752.05.258.076.484.076.678 0 .387-.062.766-.186 1.139a4.967 4.967 0 0 1-.494 1.053c-.198.33-.428.634-.692.914a5.774 5.774 0 0 1-.812.72 3.53 3.53 0 0 1-.384.236.803.803 0 0 1-.395.118zm5.631 8.609a.298.298 0 0 0-.176.054 2.253 2.253 0 0 0-.154.118c-.043.05-.087.093-.131.129a.235.235 0 0 1-.154.054h-.395c-.015 0-.037-.104-.066-.312-.03-.208-.062-.455-.099-.742a33.107 33.107 0 0 1-.077-.902 11.73 11.73 0 0 1-.032-.785c0-.115.04-.186.12-.215a.717.717 0 0 1 .275-.054c.05 0 .106.018.164.054a.662.662 0 0 1 .176.14 1.07 1.07 0 0 1 .252.312c.125.265.25.505.374.72.124.215.267.397.428.548.16.15.351.268.57.354.22.079.483.119.79.119.235 0 .425-.04.572-.119a.878.878 0 0 0 .34-.311c.08-.129.132-.276.154-.441.029-.165.044-.337.044-.516a1.3 1.3 0 0 0-.33-.903 3.989 3.989 0 0 0-.823-.698 18.237 18.237 0 0 0-1.065-.656 6.55 6.55 0 0 1-1.065-.774 3.98 3.98 0 0 1-.812-1.042c-.22-.408-.33-.91-.33-1.505 0-.344.11-.677.33-.999.22-.33.505-.62.856-.871a4.643 4.643 0 0 1 1.175-.602c.439-.15.874-.225 1.306-.225.227 0 .454.021.68.064a6.26 6.26 0 0 1 1.131.28c.14.05.227.086.264.107a.351.351 0 0 1 .12.172c.037.072.059.19.066.355.015.165.022.387.022.666.008.272.011.631.011 1.075 0 .122-.047.211-.143.268a.52.52 0 0 1-.263.076.733.733 0 0 1-.241-.043.227.227 0 0 1-.143-.14 8.816 8.816 0 0 0-.296-.666 3.012 3.012 0 0 0-.385-.613 1.6 1.6 0 0 0-.494-.441 1.257 1.257 0 0 0-.658-.172 1.84 1.84 0 0 0-.44.054.898.898 0 0 0-.395.215c-.116.1-.212.24-.285.419a2.026 2.026 0 0 0-.099.688c0 .244.114.469.34.677.235.208.524.419.868.634l1.12.677c.41.244.786.523 1.13.839.344.315.63.68.856 1.096.234.408.352.892.352 1.451 0 .415-.11.792-.33 1.128-.22.33-.501.609-.845.839a4.116 4.116 0 0 1-1.153.526 4.148 4.148 0 0 1-1.229.194 3.55 3.55 0 0 1-.615-.054 5.027 5.027 0 0 1-.56-.129 6.728 6.728 0 0 1-.417-.118 1.314 1.314 0 0 0-.186-.054zm12.272-.484a.18.18 0 0 1 .01-.043c.008-.028.034-.043.078-.043h.241c.307-.021.622-.032.944-.032a3.63 3.63 0 0 0 .878-.118 1.38 1.38 0 0 0 .648-.398c.168-.193.252-.49.252-.892V97.472c0-.28-.058-.505-.175-.677a1.315 1.315 0 0 0-.461-.43 2.228 2.228 0 0 0-.648-.236 8.311 8.311 0 0 0-.735-.14h-.23c-.037 0-.063-.011-.078-.032a.174.174 0 0 1-.01-.054v-.42c0-.014.003-.032.01-.053.015-.022.04-.032.077-.032h10.933c.132 0 .227.025.285.075.059.043.095.143.11.3l.198 3.44c0 .036-.033.065-.1.086a.697.697 0 0 1-.34 0c-.058-.014-.098-.036-.12-.065a.742.742 0 0 1-.11-.311 29.38 29.38 0 0 0-.077-.473 3.88 3.88 0 0 0-.11-.537 1.784 1.784 0 0 0-.208-.516 1.317 1.317 0 0 0-.395-.409 1.407 1.407 0 0 0-.626-.247h-3.919c-.095 0-.142.047-.142.14v5.126c0 .072.036.108.11.108h3.139c.183 0 .362-.022.538-.065.183-.05.34-.136.472-.258.139-.121.249-.29.329-.505.088-.222.132-.505.132-.849 0-.057.029-.086.088-.086h.428c.058 0 .087.029.087.086v4.923c0 .035-.01.06-.033.075a.192.192 0 0 1-.054.011h-.428c-.037 0-.063-.011-.077-.033a.169.169 0 0 1-.011-.053c0-.402-.044-.724-.132-.968-.08-.251-.19-.444-.33-.58a.978.978 0 0 0-.482-.28 2.036 2.036 0 0 0-.56-.075H72.95c-.073 0-.11.036-.11.108v4.696c0 .208.034.376.1.505a.706.706 0 0 0 .263.28c.117.064.249.107.395.129.146.021.3.032.461.032h2.997c.424 0 .78-.093 1.064-.279.286-.194.516-.427.692-.699.176-.272.304-.555.384-.849.088-.294.143-.544.165-.752a.297.297 0 0 1 .143-.215.457.457 0 0 1 .274-.086.28.28 0 0 1 .132.043c.05.028.076.061.076.097l-.362 3.933a.427.427 0 0 1-.066.108.107.107 0 0 1-.087.043H66.75c-.044 0-.07-.011-.077-.033a.304.304 0 0 1-.011-.053v-.463zm19.692-9.339c.044 0 .07.025.077.075a.86.86 0 0 1 .01.108c-.007.057-.065.1-.175.129-.11.021-.23.053-.362.096a1.119 1.119 0 0 0-.362.172c-.11.079-.165.197-.165.355 0 .064.007.129.022.193.015.065.04.115.077.151l1.438 1.73c.058.065.117.136.175.215.066.072.129.108.187.108.037 0 .084-.036.143-.108l1.284-1.505c.095-.107.165-.2.209-.279a.732.732 0 0 0 .066-.333c0-.215-.06-.362-.176-.441a1.088 1.088 0 0 0-.395-.182l-.385-.119c-.117-.036-.175-.114-.175-.236a.42.42 0 0 1 .01-.086c.016-.029.052-.043.11-.043h3.656c.044 0 .07.011.077.032a.538.538 0 0 1 .01.151.666.666 0 0 1-.01.107.13.13 0 0 1-.077.097 3.447 3.447 0 0 0-.549.193 2.277 2.277 0 0 0-.428.237c-.132.093-.26.204-.384.333a9.888 9.888 0 0 0-.395.441l-2.01 2.342a.485.485 0 0 0-.043.086v.086l3.952 4.805a.784.784 0 0 0 .296.225c.132.05.256.101.373.151.125.05.23.107.319.172a.268.268 0 0 1 .131.236c0 .065-.007.108-.022.129-.014.022-.051.043-.11.065H87.65c-.058 0-.091-.029-.099-.086a1.141 1.141 0 0 1-.01-.119c0-.093.058-.147.175-.161.125-.021.26-.043.406-.064.154-.022.29-.065.406-.129.125-.065.187-.194.187-.387a.408.408 0 0 0-.099-.269 2.9 2.9 0 0 0-.175-.215l-1.888-2.171a3.622 3.622 0 0 0-.143-.183c-.03-.043-.095-.064-.198-.064a.264.264 0 0 0-.22.118 1.478 1.478 0 0 1-.164.194l-1.613 1.88a.81.81 0 0 0-.187.334 1 1 0 0 0-.044.258c0 .129.048.243.143.343.102.094.223.172.362.237.139.057.278.1.417.129.14.029.253.043.34.043.03 0 .048.018.055.054a.277.277 0 0 1 0 .215c-.007.028-.025.043-.055.043h-3.743c-.08 0-.131-.015-.153-.043a.413.413 0 0 1-.022-.151c0-.064.058-.132.175-.204a3.3 3.3 0 0 1 .395-.204c.154-.072.304-.144.45-.215a1.06 1.06 0 0 0 .33-.237l3.018-3.579-3.578-4.406a.757.757 0 0 0-.252-.172 2.62 2.62 0 0 0-.319-.15 2.713 2.713 0 0 1-.285-.151c-.073-.05-.11-.104-.11-.161.015-.143.103-.215.264-.215h4.939zm10.846-.537c.028-.015.058-.029.087-.043a.242.242 0 0 1 .077-.022c.124 0 .186.086.186.258v1.139a.1.1 0 0 0 .044.086.184.184 0 0 0 .088.032c.037 0 .07-.007.099-.021.036-.022.07-.039.099-.054.292-.172.556-.315.79-.43.234-.122.457-.215.67-.279.212-.072.431-.122.658-.151a6.31 6.31 0 0 1 .769-.043c.622 0 1.178.147 1.668.441.498.287.918.666 1.262 1.139.344.466.608.993.791 1.58.183.588.274 1.179.274 1.773 0 .438-.062.875-.187 1.312a5.833 5.833 0 0 1-.515 1.246c-.22.387-.483.749-.791 1.086-.307.337-.647.63-1.021.881a4.73 4.73 0 0 1-1.185.57 3.967 3.967 0 0 1-1.295.215c-.33 0-.652-.022-.966-.065a15.61 15.61 0 0 1-1.021-.182c-.125 0-.194.043-.209.128a42.54 42.54 0 0 0-.022.269v4.374c0 .208.044.38.132.516.095.144.212.258.351.344.147.093.304.161.472.204.176.051.344.09.505.119a6.8 6.8 0 0 0 .44.064c.131.022.23.047.296.075.073.029.11.076.11.14 0 .1-.037.158-.11.172h-6.334c-.073-.014-.11-.072-.11-.172 0-.064.037-.111.11-.14.095-.043.23-.078.406-.107.176-.022.352-.072.527-.151a1.13 1.13 0 0 0 .461-.354c.132-.158.198-.394.198-.71v-12.273c0-.172-.048-.305-.143-.398a.897.897 0 0 0-.362-.226 3.075 3.075 0 0 0-.472-.118 8.027 8.027 0 0 1-.483-.118.368.368 0 0 1-.11-.054c-.022-.028-.033-.082-.033-.161a.2.2 0 0 1 .033-.107.346.346 0 0 1 .132-.108l3.633-1.676zm2.59 1.687a3.5 3.5 0 0 0-1.087.161 3.706 3.706 0 0 0-1.043.57l-.044.043-.066.064v5.739a3.857 3.857 0 0 0 .044.441c.022.15.117.29.286.419.168.122.358.229.57.323.22.086.436.154.648.204.22.043.395.064.527.064.483 0 .889-.086 1.218-.258.337-.172.608-.401.813-.688.205-.293.351-.634.439-1.021a5.16 5.16 0 0 0 .142-1.236c0-.336-.018-.687-.054-1.053a9.202 9.202 0 0 0-.176-1.096 5.76 5.76 0 0 0-.307-1.021 3.576 3.576 0 0 0-.461-.849 2.074 2.074 0 0 0-.626-.58 1.522 1.522 0 0 0-.823-.226zm6.289 4.385c0-.838.121-1.609.362-2.311a5.39 5.39 0 0 1 1.043-1.838 4.681 4.681 0 0 1 1.658-1.203c.658-.287 1.405-.43 2.239-.43.249 0 .472.018.67.053.197.029.376.072.537.129.169.051.322.115.461.194.147.072.293.15.44.236.168.086.358.24.57.462.22.223.425.481.615.774.19.294.351.609.483.946.132.33.198.648.198.957a.99.99 0 0 1-.066.333c-.037.114-.103.172-.198.172h-6.476c-.073 0-.125.064-.154.193a2.875 2.875 0 0 0-.033.473c0 .631.092 1.193.275 1.687.19.488.442.903.757 1.247.315.337.677.595 1.087.774a3.312 3.312 0 0 0 2.118.15c.264-.078.516-.179.758-.301.241-.121.468-.258.68-.408.212-.15.414-.301.604-.451a.341.341 0 0 1 .088-.022c.022 0 .051.018.088.054.065.057.131.125.197.204.066.072.117.133.154.183.022.021.033.043.033.064 0 .022-.015.047-.044.076a6.193 6.193 0 0 1-.889.827 8.56 8.56 0 0 1-1.131.72 7.134 7.134 0 0 1-1.218.505 4.021 4.021 0 0 1-1.186.194c-.753 0-1.423-.133-2.008-.398a4.64 4.64 0 0 1-1.482-1.064 4.601 4.601 0 0 1-.922-1.483 4.899 4.899 0 0 1-.308-1.698zm6.444-2.354c.19 0 .285-.082.285-.247 0-.279-.048-.541-.143-.785a1.914 1.914 0 0 0-.384-.655 1.738 1.738 0 0 0-.615-.452 1.878 1.878 0 0 0-.79-.161c-.351 0-.659.075-.922.226a2.427 2.427 0 0 0-.67.527 2.43 2.43 0 0 0-.417.644 1.614 1.614 0 0 0-.131.57c0 .122.018.208.055.258.036.05.084.075.142.075h3.59zm7.464-3.385l.088-.043a.239.239 0 0 1 .076-.022c.125 0 .187.086.187.258v1.913c.007.029.029.043.066.043a.124.124 0 0 0 .088-.032.63.63 0 0 1 .066-.075c.131-.172.278-.362.439-.57.168-.215.344-.415.527-.602.19-.186.384-.34.581-.462.198-.129.392-.193.582-.193.132 0 .304.035.516.107.212.072.417.158.615.258.205.093.377.194.516.301.146.1.219.183.219.247 0 .065-.033.186-.099.366-.066.172-.15.347-.252.526a2.936 2.936 0 0 1-.318.484c-.11.136-.213.204-.308.204h-.022a6.027 6.027 0 0 1-.406-.15 6.502 6.502 0 0 0-.406-.183 2.32 2.32 0 0 0-.428-.151 1.441 1.441 0 0 0-1.043.076c-.19.086-.355.2-.494.344a1.67 1.67 0 0 0-.318.462 1.156 1.156 0 0 0-.121.494v4.536c0 .207.044.383.132.526.095.136.212.251.351.344.146.086.304.154.472.204.176.043.344.079.505.108l.439.075c.132.014.231.036.296.064.074.029.11.129.11.301 0 .208-.036.319-.11.334H116.2c-.073-.015-.11-.126-.11-.334 0-.172.037-.272.11-.301.095-.043.23-.075.406-.096a2.43 2.43 0 0 0 .527-.151c.175-.079.329-.197.461-.354.132-.165.197-.405.197-.72v-5.17c0-.172-.047-.305-.142-.398a.885.885 0 0 0-.362-.225 2.988 2.988 0 0 0-.472-.119 7.122 7.122 0 0 1-.483-.118.364.364 0 0 1-.11-.054c-.022-.028-.033-.082-.033-.161 0-.036.011-.071.033-.107a.35.35 0 0 1 .131-.108l3.634-1.676zm5.345 10.092c-.043-.015-.073-.061-.087-.14a1.228 1.228 0 0 1-.022-.194c0-.035.011-.093.033-.172.022-.078.047-.125.076-.139.096-.043.231-.076.407-.097.175-.029.351-.079.526-.15.176-.079.33-.198.462-.355.131-.165.197-.405.197-.72v-5.159c0-.172-.047-.305-.143-.398a.878.878 0 0 0-.362-.225 2.96 2.96 0 0 0-.472-.119 7.428 7.428 0 0 1-.483-.118.376.376 0 0 1-.11-.054c-.022-.028-.033-.082-.033-.161 0-.036.011-.071.033-.107a.346.346 0 0 1 .132-.108l3.633-1.676.088-.043a.243.243 0 0 1 .077-.022c.124 0 .187.086.187.258v7.932c0 .315.066.555.197.72.132.157.286.276.461.355.176.071.352.121.527.15.176.021.311.054.406.097.03.014.055.061.077.139a.739.739 0 0 1 .033.172c0 .043-.007.108-.022.194-.014.079-.044.125-.088.14h-5.73zm1.12-14.047c0-.459.139-.824.417-1.097.278-.272.652-.408 1.12-.408.468 0 .841.136 1.119.408.279.273.418.638.418 1.097 0 .458-.139.824-.418 1.096-.278.265-.651.398-1.119.398-.468 0-.842-.133-1.12-.398-.278-.272-.417-.638-.417-1.096zm6.037 9.694c0-.838.121-1.609.363-2.311a5.372 5.372 0 0 1 1.042-1.838 4.69 4.69 0 0 1 1.658-1.203c.658-.287 1.405-.43 2.239-.43.249 0 .472.018.67.053.197.029.377.072.538.129.168.051.321.115.461.194.146.072.292.15.439.236.168.086.358.24.57.462.22.223.425.481.615.774.19.294.351.609.483.946.132.33.198.648.198.957a.99.99 0 0 1-.066.333c-.037.114-.103.172-.198.172h-6.476c-.073 0-.124.064-.154.193a2.875 2.875 0 0 0-.033.473c0 .631.092 1.193.275 1.687.19.488.442.903.757 1.247.315.337.677.595 1.087.774a3.312 3.312 0 0 0 2.118.15c.264-.078.516-.179.758-.301.241-.121.468-.258.68-.408.213-.15.414-.301.604-.451a.341.341 0 0 1 .088-.022c.022 0 .051.018.088.054.066.057.131.125.197.204.066.072.117.133.154.183.022.021.033.043.033.064 0 .022-.015.047-.044.076a6.193 6.193 0 0 1-.889.827 8.56 8.56 0 0 1-1.131.72 7.134 7.134 0 0 1-1.218.505 4.016 4.016 0 0 1-1.186.194c-.753 0-1.423-.133-2.008-.398a4.64 4.64 0 0 1-1.482-1.064 4.601 4.601 0 0 1-.922-1.483 4.899 4.899 0 0 1-.308-1.698zm6.444-2.354c.19 0 .285-.082.285-.247 0-.279-.048-.541-.143-.785a1.898 1.898 0 0 0-.384-.655 1.738 1.738 0 0 0-.615-.452 1.878 1.878 0 0 0-.79-.161c-.351 0-.658.075-.922.226a2.407 2.407 0 0 0-.669.527 2.434 2.434 0 0 0-.418.644 1.614 1.614 0 0 0-.131.57c0 .122.018.208.055.258.036.05.084.075.142.075h3.59zm7.2-3.718l.088-.043a.243.243 0 0 1 .077-.022c.124 0 .187.086.187.258v1.677c.022.071.051.107.087.107h.088a4.888 4.888 0 0 1 2.755-1.3c.191-.065.381-.111.571-.14.19-.036.399-.057.626-.065.227-.007.505-.01.834-.01.359 0 .67.075.933.225.264.151.483.351.659.602.183.244.329.527.439.849.117.316.205.642.263.978.059.33.099.659.121.989.022.322.033.616.033.881 0 .251-.007.484-.022.699-.007.215-.018.451-.033.709-.007.251-.018.538-.033.86-.007.322-.011.713-.011 1.172 0 .214.04.394.121.537.08.143.183.261.307.355.132.093.275.164.428.215.154.042.304.078.45.107.147.029.278.054.396.075.124.015.219.036.285.065.029.014.055.061.077.139a.739.739 0 0 1 .033.172c0 .043-.008.108-.022.194-.015.079-.044.125-.088.14h-6.125c-.044-.015-.073-.061-.088-.14a1.228 1.228 0 0 1-.022-.194c0-.035.011-.093.033-.172.022-.078.048-.125.077-.139.095-.043.219-.076.373-.097a1.64 1.64 0 0 0 .483-.172 1.34 1.34 0 0 0 .45-.387c.139-.179.231-.441.275-.784a7.05 7.05 0 0 0 .033-.301 3.871 3.871 0 0 0 .043-.602c.008-.115.011-.247.011-.398a47.1 47.1 0 0 0-.011-1.032 64.111 64.111 0 0 1-.011-1.225 10 10 0 0 0-.054-1.042 2.631 2.631 0 0 0-.242-.925 1.607 1.607 0 0 0-.56-.666c-.249-.172-.592-.258-1.032-.258-.153 0-.292.011-.417.032a2.08 2.08 0 0 0-.439.119c-.168.064-.391.161-.669.29-.278.129-.652.304-1.12.526a2.276 2.276 0 0 0-.187.129.235.235 0 0 0-.098.172v5.267c0 .322.066.569.197.741.132.165.286.287.461.366.176.071.352.121.527.15.176.021.311.054.406.097.03.014.055.061.077.139a.739.739 0 0 1 .033.172c0 .043-.007.108-.022.194-.015.079-.044.125-.088.14h-5.73c-.043-.015-.073-.061-.087-.14a1.228 1.228 0 0 1-.022-.194c0-.035.011-.093.033-.172.022-.078.047-.125.076-.139.096-.043.231-.076.407-.097.175-.029.351-.079.526-.15.176-.079.33-.201.461-.366.132-.172.198-.419.198-.741v-5.46c0-.172-.048-.305-.143-.398a.897.897 0 0 0-.362-.226 3.072 3.072 0 0 0-.472-.118 8.14 8.14 0 0 1-.483-.118.376.376 0 0 1-.11-.054c-.022-.028-.033-.082-.033-.161a.2.2 0 0 1 .033-.107.346.346 0 0 1 .132-.108l3.633-1.676zm10.966 5.878c.007-1.039.168-1.913.483-2.622.315-.716.736-1.293 1.262-1.73a4.877 4.877 0 0 1 1.834-.946 8.248 8.248 0 0 1 2.777-.269c.227.007.457.029.691.065.242.028.476.075.703.139.234.065.442.154.625.269.191.108.341.244.45.408a.944.944 0 0 1 .176.581.79.79 0 0 1-.099.419.756.756 0 0 1-.274.247 1.314 1.314 0 0 1-.406.118 3.5 3.5 0 0 1-.494.033c-.205 0-.381-.033-.527-.097a2.356 2.356 0 0 1-.384-.247 3.594 3.594 0 0 1-.33-.323 2.029 2.029 0 0 0-.34-.322 1.515 1.515 0 0 0-.406-.247 1.313 1.313 0 0 0-.56-.108c-.512 0-.933.129-1.262.387a2.633 2.633 0 0 0-.779.967 4.709 4.709 0 0 0-.385 1.279c-.066.466-.098.91-.098 1.333 0 .573.054 1.103.164 1.591.11.48.286.895.527 1.246.249.351.567.627.955.828.395.193.871.29 1.427.29.205 0 .406-.032.604-.097.205-.064.399-.15.582-.258.19-.114.365-.243.526-.386a3.95 3.95 0 0 0 .461-.463c.074-.086.143-.157.209-.215.073-.057.183-.086.329-.086.176 0 .326.047.45.14.132.086.198.179.198.28a.527.527 0 0 1-.132.311 7.999 7.999 0 0 1-.9.946c-.322.287-.666.53-1.032.731-.366.2-.761.355-1.185.462a5.022 5.022 0 0 1-1.339.172c-.63 0-1.219-.136-1.768-.408a5.035 5.035 0 0 1-1.427-1.097 5.478 5.478 0 0 1-.955-1.547 4.71 4.71 0 0 1-.351-1.774zm10.626.194c0-.838.12-1.609.362-2.311a5.357 5.357 0 0 1 1.043-1.838 4.677 4.677 0 0 1 1.657-1.203c.659-.287 1.405-.43 2.239-.43.249 0 .472.018.67.053.198.029.377.072.538.129.168.051.322.115.461.194.146.072.293.15.439.236.168.086.359.24.571.462a5.166 5.166 0 0 1 1.097 1.72c.132.33.198.648.198.957a.99.99 0 0 1-.066.333c-.036.114-.102.172-.197.172h-6.477c-.073 0-.124.064-.153.193a2.875 2.875 0 0 0-.033.473c0 .631.091 1.193.274 1.687.19.488.443.903.757 1.247.315.337.677.595 1.087.774a3.315 3.315 0 0 0 2.119.15c.263-.078.516-.179.757-.301.242-.121.468-.258.681-.408.212-.15.413-.301.603-.451a.35.35 0 0 1 .088-.022c.022 0 .051.018.088.054.066.057.132.125.198.204.065.072.117.133.153.183.022.021.033.043.033.064 0 .022-.014.047-.044.076a6.14 6.14 0 0 1-.889.827 8.614 8.614 0 0 1-1.13.72 7.178 7.178 0 0 1-1.219.505 4.015 4.015 0 0 1-1.185.194c-.754 0-1.424-.133-2.009-.398a4.651 4.651 0 0 1-1.482-1.064 4.619 4.619 0 0 1-.922-1.483 4.898 4.898 0 0 1-.307-1.698zm6.443-2.354c.19 0 .285-.082.285-.247 0-.279-.047-.541-.142-.785a1.914 1.914 0 0 0-.384-.655 1.756 1.756 0 0 0-.615-.452 1.882 1.882 0 0 0-.791-.161c-.351 0-.658.075-.922.226a2.422 2.422 0 0 0-.669.527 2.405 2.405 0 0 0-.417.644 1.596 1.596 0 0 0-.132.57c0 .122.018.208.055.258.036.05.084.075.143.075h3.589z" fill="#C5B37B"/></svg>